<svg xmlns="http://www.w3.org/2000/svg" xmlns:xlink="http://www.w3.org/1999/xlink" width="600" zoomAndPan="magnify" viewBox="0 0 450 225" height="300" preserveAspectRatio="xMidYMid meet" version="1.0"><defs><g/><clipPath id="de87ee2f07"><path d="M 103.785156 112.21875 L 393 112.21875 L 393 190.96875 L 103.785156 190.96875 Z M 103.785156 112.21875 " clip-rule="nonzero"/></clipPath></defs><rect x="-45" width="540" fill="#ffffff" y="-22.5" height="270" fill-opacity="1"/><rect x="-45" width="540" fill="#14345b" y="-22.5" height="270" fill-opacity="1"/><g fill="#ffffff" fill-opacity="1"><g transform="translate(57.67987, 111.090851)"><g><path d="M 41.890625 -50.234375 C 41.828125 -49.804688 41.660156 -49.472656 41.390625 -49.234375 C 41.117188 -48.992188 40.769531 -48.875 40.34375 -48.875 L 23.484375 -48.875 C 23.179688 -48.875 23.03125 -48.722656 23.03125 -48.421875 L 21.9375 -39.53125 C 21.820312 -39.226562 21.945312 -39.078125 22.3125 -39.078125 L 31.09375 -39.078125 C 31.519531 -39.078125 31.835938 -38.957031 32.046875 -38.71875 C 32.265625 -38.476562 32.34375 -38.144531 32.28125 -37.71875 L 30.828125 -25.84375 C 30.648438 -24.9375 30.132812 -24.484375 29.28125 -24.484375 L 20.484375 -24.484375 C 20.179688 -24.484375 20.03125 -24.332031 20.03125 -24.03125 L 17.234375 -1.359375 C 17.171875 -0.929688 17.003906 -0.597656 16.734375 -0.359375 C 16.460938 -0.117188 16.144531 0 15.78125 0 L 1.8125 0 C 1.445312 0 1.160156 -0.117188 0.953125 -0.359375 C 0.742188 -0.597656 0.664062 -0.929688 0.71875 -1.359375 L 8.15625 -62.109375 C 8.21875 -62.535156 8.382812 -62.867188 8.65625 -63.109375 C 8.925781 -63.347656 9.242188 -63.46875 9.609375 -63.46875 L 42.15625 -63.46875 C 42.582031 -63.46875 42.898438 -63.347656 43.109375 -63.109375 C 43.328125 -62.867188 43.40625 -62.535156 43.34375 -62.109375 Z M 41.890625 -50.234375 "/></g></g></g><g fill="#ffffff" fill-opacity="1"><g transform="translate(95.666623, 111.090851)"><g><path d="M 19.40625 0.71875 C 14.019531 0.71875 9.785156 -0.742188 6.703125 -3.671875 C 3.617188 -6.597656 2.078125 -10.570312 2.078125 -15.59375 C 2.078125 -16.195312 2.140625 -17.222656 2.265625 -18.671875 L 5.53125 -44.796875 C 6.257812 -50.710938 8.601562 -55.425781 12.5625 -58.9375 C 16.519531 -62.445312 21.460938 -64.203125 27.390625 -64.203125 C 32.703125 -64.203125 36.914062 -62.734375 40.03125 -59.796875 C 43.144531 -56.867188 44.703125 -52.894531 44.703125 -47.875 C 44.703125 -47.269531 44.640625 -46.242188 44.515625 -44.796875 L 41.34375 -18.671875 C 40.625 -12.753906 38.269531 -8.039062 34.28125 -4.53125 C 30.289062 -1.03125 25.332031 0.71875 19.40625 0.71875 Z M 21.21875 -13.875 C 22.125 -13.875 22.894531 -14.234375 23.53125 -14.953125 C 24.164062 -15.679688 24.570312 -16.679688 24.75 -17.953125 L 28.109375 -45.515625 C 28.234375 -46.785156 28.082031 -47.78125 27.65625 -48.5 C 27.226562 -49.226562 26.5625 -49.59375 25.65625 -49.59375 C 24.6875 -49.59375 23.882812 -49.226562 23.25 -48.5 C 22.625 -47.78125 22.25 -46.785156 22.125 -45.515625 L 18.765625 -17.953125 C 18.703125 -17.710938 18.671875 -17.378906 18.671875 -16.953125 C 18.671875 -15.984375 18.894531 -15.226562 19.34375 -14.6875 C 19.800781 -14.144531 20.425781 -13.875 21.21875 -13.875 Z M 21.21875 -13.875 "/></g></g></g><g fill="#ffffff" fill-opacity="1"><g transform="translate(138.186389, 111.090851)"><g><path d="M 19.40625 0.71875 C 14.019531 0.71875 9.785156 -0.742188 6.703125 -3.671875 C 3.617188 -6.597656 2.078125 -10.570312 2.078125 -15.59375 C 2.078125 -16.195312 2.140625 -17.222656 2.265625 -18.671875 L 5.53125 -44.796875 C 6.257812 -50.710938 8.601562 -55.425781 12.5625 -58.9375 C 16.519531 -62.445312 21.460938 -64.203125 27.390625 -64.203125 C 32.703125 -64.203125 36.914062 -62.734375 40.03125 -59.796875 C 43.144531 -56.867188 44.703125 -52.894531 44.703125 -47.875 C 44.703125 -47.269531 44.640625 -46.242188 44.515625 -44.796875 L 41.34375 -18.671875 C 40.625 -12.753906 38.269531 -8.039062 34.28125 -4.53125 C 30.289062 -1.03125 25.332031 0.71875 19.40625 0.71875 Z M 21.21875 -13.875 C 22.125 -13.875 22.894531 -14.234375 23.53125 -14.953125 C 24.164062 -15.679688 24.570312 -16.679688 24.75 -17.953125 L 28.109375 -45.515625 C 28.234375 -46.785156 28.082031 -47.78125 27.65625 -48.5 C 27.226562 -49.226562 26.5625 -49.59375 25.65625 -49.59375 C 24.6875 -49.59375 23.882812 -49.226562 23.25 -48.5 C 22.625 -47.78125 22.25 -46.785156 22.125 -45.515625 L 18.765625 -17.953125 C 18.703125 -17.710938 18.671875 -17.378906 18.671875 -16.953125 C 18.671875 -15.984375 18.894531 -15.226562 19.34375 -14.6875 C 19.800781 -14.144531 20.425781 -13.875 21.21875 -13.875 Z M 21.21875 -13.875 "/></g></g></g><g fill="#ffffff" fill-opacity="1"><g transform="translate(180.706156, 111.090851)"><g><path d="M 47.0625 -63.46875 C 47.425781 -63.46875 47.710938 -63.347656 47.921875 -63.109375 C 48.128906 -62.867188 48.203125 -62.535156 48.140625 -62.109375 L 46.703125 -50.234375 C 46.640625 -49.804688 46.484375 -49.472656 46.234375 -49.234375 C 45.992188 -48.992188 45.664062 -48.875 45.25 -48.875 L 34.734375 -48.875 C 34.429688 -48.875 34.28125 -48.722656 34.28125 -48.421875 L 28.46875 -1.359375 C 28.40625 -0.929688 28.253906 -0.597656 28.015625 -0.359375 C 27.773438 -0.117188 27.441406 0 27.015625 0 L 13.140625 0 C 12.722656 0 12.40625 -0.117188 12.1875 -0.359375 C 11.976562 -0.597656 11.90625 -0.929688 11.96875 -1.359375 L 17.765625 -48.421875 C 17.765625 -48.722656 17.613281 -48.875 17.3125 -48.875 L 7.15625 -48.875 C 6.738281 -48.875 6.421875 -48.992188 6.203125 -49.234375 C 5.992188 -49.472656 5.921875 -49.804688 5.984375 -50.234375 L 7.4375 -62.109375 C 7.5 -62.535156 7.664062 -62.867188 7.9375 -63.109375 C 8.207031 -63.347656 8.550781 -63.46875 8.96875 -63.46875 Z M 47.0625 -63.46875 "/></g></g></g><g fill="#ffffff" fill-opacity="1"><g transform="translate(224.585832, 111.090851)"><g><path d="M 41.625 -18.21875 C 40.957031 -12.363281 38.644531 -7.863281 34.6875 -4.71875 C 30.726562 -1.570312 25.96875 0 20.40625 0 L 1.8125 0 C 1.445312 0 1.160156 -0.117188 0.953125 -0.359375 C 0.742188 -0.597656 0.664062 -0.929688 0.71875 -1.359375 L 8.15625 -62.109375 C 8.21875 -62.535156 8.382812 -62.867188 8.65625 -63.109375 C 8.925781 -63.347656 9.242188 -63.46875 9.609375 -63.46875 L 25.5625 -63.46875 C 31.375 -63.46875 35.894531 -62.242188 39.125 -59.796875 C 42.351562 -57.347656 43.96875 -53.644531 43.96875 -48.6875 C 43.96875 -48.082031 43.910156 -47.054688 43.796875 -45.609375 C 43.066406 -39.984375 40.859375 -35.8125 37.171875 -33.09375 C 36.804688 -32.914062 36.71875 -32.734375 36.90625 -32.546875 C 40.164062 -29.765625 41.796875 -25.867188 41.796875 -20.859375 C 41.796875 -20.304688 41.738281 -19.425781 41.625 -18.21875 Z M 23.484375 -48.875 C 23.179688 -48.875 23.03125 -48.722656 23.03125 -48.421875 L 21.859375 -39.171875 C 21.859375 -38.867188 21.976562 -38.71875 22.21875 -38.71875 L 22.765625 -38.71875 C 25.359375 -38.71875 26.898438 -40.410156 27.390625 -43.796875 L 27.46875 -44.96875 C 27.46875 -47.570312 26.320312 -48.875 24.03125 -48.875 Z M 20.859375 -14.59375 C 22.179688 -14.59375 23.28125 -15.226562 24.15625 -16.5 C 25.039062 -17.769531 25.484375 -19.582031 25.484375 -21.9375 C 25.484375 -23.332031 25.207031 -24.453125 24.65625 -25.296875 C 24.113281 -26.140625 23.359375 -26.5625 22.390625 -26.5625 L 20.765625 -26.5625 C 20.460938 -26.5625 20.3125 -26.410156 20.3125 -26.109375 L 18.953125 -15.046875 C 18.828125 -14.742188 18.945312 -14.59375 19.3125 -14.59375 Z M 20.859375 -14.59375 "/></g></g></g><g fill="#ffffff" fill-opacity="1"><g transform="translate(267.105599, 111.090851)"><g><path d="M 28.203125 0 C 27.347656 0 26.953125 -0.421875 27.015625 -1.265625 L 26.84375 -8.15625 C 26.894531 -8.28125 26.859375 -8.382812 26.734375 -8.46875 C 26.617188 -8.5625 26.503906 -8.609375 26.390625 -8.609375 L 18.5 -8.609375 C 18.195312 -8.609375 17.984375 -8.457031 17.859375 -8.15625 L 16.140625 -1.265625 C 15.960938 -0.421875 15.445312 0 14.59375 0 L 0.8125 0 C -0.09375 0 -0.425781 -0.484375 -0.1875 -1.453125 L 19.765625 -62.296875 C 20.003906 -63.078125 20.550781 -63.46875 21.40625 -63.46875 L 37.453125 -63.46875 C 38.296875 -63.46875 38.75 -63.078125 38.8125 -62.296875 L 43.796875 -1.453125 L 43.796875 -1.265625 C 43.796875 -0.421875 43.34375 0 42.4375 0 Z M 21.578125 -22.125 C 21.460938 -21.820312 21.554688 -21.671875 21.859375 -21.671875 L 26.109375 -21.671875 C 26.296875 -21.671875 26.445312 -21.820312 26.5625 -22.125 L 26.203125 -38.890625 C 26.203125 -39.140625 26.125 -39.25 25.96875 -39.21875 C 25.820312 -39.1875 25.75 -39.078125 25.75 -38.890625 Z M 21.578125 -22.125 "/></g></g></g><g fill="#ffffff" fill-opacity="1"><g transform="translate(313.795758, 111.090851)"><g><path d="M 1.8125 0 C 1.445312 0 1.160156 -0.117188 0.953125 -0.359375 C 0.742188 -0.597656 0.664062 -0.929688 0.71875 -1.359375 L 8.15625 -62.109375 C 8.21875 -62.535156 8.382812 -62.867188 8.65625 -63.109375 C 8.925781 -63.347656 9.242188 -63.46875 9.609375 -63.46875 L 23.578125 -63.46875 C 23.941406 -63.46875 24.226562 -63.347656 24.4375 -63.109375 C 24.644531 -62.867188 24.71875 -62.535156 24.65625 -62.109375 L 18.953125 -15.046875 C 18.828125 -14.742188 18.945312 -14.59375 19.3125 -14.59375 L 36.546875 -14.59375 C 36.960938 -14.59375 37.273438 -14.472656 37.484375 -14.234375 C 37.703125 -13.992188 37.78125 -13.660156 37.71875 -13.234375 L 36.265625 -1.359375 C 36.085938 -0.453125 35.578125 0 34.734375 0 Z M 1.8125 0 "/></g></g></g><g fill="#ffffff" fill-opacity="1"><g transform="translate(353.051766, 111.090851)"><g><path d="M 1.8125 0 C 1.445312 0 1.160156 -0.117188 0.953125 -0.359375 C 0.742188 -0.597656 0.664062 -0.929688 0.71875 -1.359375 L 8.15625 -62.109375 C 8.21875 -62.535156 8.382812 -62.867188 8.65625 -63.109375 C 8.925781 -63.347656 9.242188 -63.46875 9.609375 -63.46875 L 23.578125 -63.46875 C 23.941406 -63.46875 24.226562 -63.347656 24.4375 -63.109375 C 24.644531 -62.867188 24.71875 -62.535156 24.65625 -62.109375 L 18.953125 -15.046875 C 18.828125 -14.742188 18.945312 -14.59375 19.3125 -14.59375 L 36.546875 -14.59375 C 36.960938 -14.59375 37.273438 -14.472656 37.484375 -14.234375 C 37.703125 -13.992188 37.78125 -13.660156 37.71875 -13.234375 L 36.265625 -1.359375 C 36.085938 -0.453125 35.578125 0 34.734375 0 Z M 1.8125 0 "/></g></g></g><g clip-path="url(#de87ee2f07)"><path fill="#ff0000" d="M 39.382812 112.226562 L 392.972656 112.226562 C 392.972656 138.480469 392.972656 164.730469 392.972656 190.980469 C 275.109375 190.980469 157.246094 190.980469 39.382812 190.980469 C 39.382812 164.730469 39.382812 138.480469 39.382812 112.226562 " fill-opacity="1" fill-rule="nonzero"/></g><g fill="#ffffff" fill-opacity="1"><g transform="translate(170.157604, 183.238731)"><g><path d="M 28.203125 0 C 27.347656 0 26.953125 -0.421875 27.015625 -1.265625 L 26.84375 -8.15625 C 26.894531 -8.28125 26.859375 -8.382812 26.734375 -8.46875 C 26.617188 -8.5625 26.503906 -8.609375 26.390625 -8.609375 L 18.5 -8.609375 C 18.195312 -8.609375 17.984375 -8.457031 17.859375 -8.15625 L 16.140625 -1.265625 C 15.960938 -0.421875 15.445312 0 14.59375 0 L 0.8125 0 C -0.09375 0 -0.425781 -0.484375 -0.1875 -1.453125 L 19.765625 -62.296875 C 20.003906 -63.078125 20.550781 -63.46875 21.40625 -63.46875 L 37.453125 -63.46875 C 38.296875 -63.46875 38.75 -63.078125 38.8125 -62.296875 L 43.796875 -1.453125 L 43.796875 -1.265625 C 43.796875 -0.421875 43.34375 0 42.4375 0 Z M 21.578125 -22.125 C 21.460938 -21.820312 21.554688 -21.671875 21.859375 -21.671875 L 26.109375 -21.671875 C 26.296875 -21.671875 26.445312 -21.820312 26.5625 -22.125 L 26.203125 -38.890625 C 26.203125 -39.140625 26.125 -39.25 25.96875 -39.21875 C 25.820312 -39.1875 25.75 -39.078125 25.75 -38.890625 Z M 21.578125 -22.125 "/></g></g></g><g fill="#ffffff" fill-opacity="1"><g transform="translate(216.847763, 183.238731)"><g><path d="M 24.578125 0 C 23.847656 0 23.421875 -0.390625 23.296875 -1.171875 L 20.671875 -24.03125 C 20.671875 -24.269531 20.582031 -24.390625 20.40625 -24.390625 C 20.15625 -24.390625 20.03125 -24.238281 20.03125 -23.9375 L 17.234375 -1.359375 C 17.171875 -0.929688 17.003906 -0.597656 16.734375 -0.359375 C 16.460938 -0.117188 16.144531 0 15.78125 0 L 1.8125 0 C 1.445312 0 1.160156 -0.117188 0.953125 -0.359375 C 0.742188 -0.597656 0.664062 -0.929688 0.71875 -1.359375 L 8.15625 -62.109375 C 8.21875 -62.535156 8.382812 -62.867188 8.65625 -63.109375 C 8.925781 -63.347656 9.242188 -63.46875 9.609375 -63.46875 L 29.46875 -63.46875 C 34.300781 -63.46875 38.125 -61.925781 40.9375 -58.84375 C 43.75 -55.757812 45.15625 -51.679688 45.15625 -46.609375 C 45.15625 -45.148438 45.09375 -44.03125 44.96875 -43.25 C 44.550781 -39.925781 43.613281 -36.945312 42.15625 -34.3125 C 40.707031 -31.6875 38.835938 -29.554688 36.546875 -27.921875 C 36.242188 -27.742188 36.148438 -27.535156 36.265625 -27.296875 L 40.171875 -1.546875 L 40.171875 -1.171875 C 40.171875 -0.816406 40.046875 -0.53125 39.796875 -0.3125 C 39.554688 -0.101562 39.253906 0 38.890625 0 Z M 23.484375 -48.875 C 23.179688 -48.875 23.03125 -48.722656 23.03125 -48.421875 L 21.671875 -37.8125 C 21.671875 -37.507812 21.820312 -37.359375 22.125 -37.359375 L 23.296875 -37.359375 C 24.753906 -37.359375 25.976562 -37.992188 26.96875 -39.265625 C 27.96875 -40.535156 28.46875 -42.285156 28.46875 -44.515625 C 28.46875 -45.910156 28.132812 -46.984375 27.46875 -47.734375 C 26.800781 -48.492188 25.894531 -48.875 24.75 -48.875 Z M 23.484375 -48.875 "/></g></g></g><g fill="#ffffff" fill-opacity="1"><g transform="translate(259.91149, 183.238731)"><g><path d="M 41.890625 -50.234375 C 41.828125 -49.804688 41.660156 -49.472656 41.390625 -49.234375 C 41.117188 -48.992188 40.769531 -48.875 40.34375 -48.875 L 23.484375 -48.875 C 23.179688 -48.875 23.03125 -48.722656 23.03125 -48.421875 L 21.9375 -39.53125 C 21.820312 -39.226562 21.945312 -39.078125 22.3125 -39.078125 L 31.09375 -39.078125 C 31.519531 -39.078125 31.835938 -38.957031 32.046875 -38.71875 C 32.265625 -38.476562 32.34375 -38.144531 32.28125 -37.71875 L 30.828125 -25.84375 C 30.648438 -24.9375 30.132812 -24.484375 29.28125 -24.484375 L 20.484375 -24.484375 C 20.179688 -24.484375 20.03125 -24.332031 20.03125 -24.03125 L 18.953125 -15.046875 C 18.828125 -14.742188 18.945312 -14.59375 19.3125 -14.59375 L 36.171875 -14.59375 C 36.597656 -14.59375 36.914062 -14.472656 37.125 -14.234375 C 37.34375 -13.992188 37.421875 -13.660156 37.359375 -13.234375 L 35.90625 -1.359375 C 35.84375 -0.929688 35.675781 -0.597656 35.40625 -0.359375 C 35.132812 -0.117188 34.785156 0 34.359375 0 L 1.8125 0 C 1.445312 0 1.160156 -0.117188 0.953125 -0.359375 C 0.742188 -0.597656 0.664062 -0.929688 0.71875 -1.359375 L 8.15625 -62.109375 C 8.21875 -62.535156 8.382812 -62.867188 8.65625 -63.109375 C 8.925781 -63.347656 9.242188 -63.46875 9.609375 -63.46875 L 42.15625 -63.46875 C 42.582031 -63.46875 42.898438 -63.347656 43.109375 -63.109375 C 43.328125 -62.867188 43.40625 -62.535156 43.34375 -62.109375 Z M 41.890625 -50.234375 "/></g></g></g><g fill="#ffffff" fill-opacity="1"><g transform="translate(298.986162, 183.238731)"><g><path d="M 33.640625 -62.109375 C 33.703125 -62.535156 33.867188 -62.867188 34.140625 -63.109375 C 34.410156 -63.347656 34.757812 -63.46875 35.1875 -63.46875 L 48.875 -63.46875 C 49.289062 -63.46875 49.601562 -63.347656 49.8125 -63.109375 C 50.03125 -62.867188 50.109375 -62.535156 50.046875 -62.109375 L 42.53125 -1.359375 C 42.46875 -0.929688 42.3125 -0.597656 42.0625 -0.359375 C 41.820312 -0.117188 41.492188 0 41.078125 0 L 25.390625 0 C 24.660156 0 24.238281 -0.390625 24.125 -1.171875 L 20.671875 -29.015625 C 20.671875 -29.191406 20.609375 -29.28125 20.484375 -29.28125 C 20.367188 -29.28125 20.3125 -29.191406 20.3125 -29.015625 L 17.046875 -1.359375 C 16.984375 -0.929688 16.816406 -0.597656 16.546875 -0.359375 C 16.273438 -0.117188 15.957031 0 15.59375 0 L 1.8125 0 C 1.445312 0 1.160156 -0.117188 0.953125 -0.359375 C 0.742188 -0.597656 0.664062 -0.929688 0.71875 -1.359375 L 8.15625 -62.109375 C 8.21875 -62.535156 8.382812 -62.867188 8.65625 -63.109375 C 8.925781 -63.347656 9.242188 -63.46875 9.609375 -63.46875 L 25.109375 -63.46875 C 25.835938 -63.46875 26.265625 -63.078125 26.390625 -62.296875 L 29.921875 -34.28125 C 29.921875 -34.09375 29.976562 -34.03125 30.09375 -34.09375 C 30.21875 -34.15625 30.3125 -34.242188 30.375 -34.359375 Z M 33.640625 -62.109375 "/></g></g></g><g fill="#ffffff" fill-opacity="1"><g transform="translate(345.404333, 183.238731)"><g><path d="M 28.203125 0 C 27.347656 0 26.953125 -0.421875 27.015625 -1.265625 L 26.84375 -8.15625 C 26.894531 -8.28125 26.859375 -8.382812 26.734375 -8.46875 C 26.617188 -8.5625 26.503906 -8.609375 26.390625 -8.609375 L 18.5 -8.609375 C 18.195312 -8.609375 17.984375 -8.457031 17.859375 -8.15625 L 16.140625 -1.265625 C 15.960938 -0.421875 15.445312 0 14.59375 0 L 0.8125 0 C -0.09375 0 -0.425781 -0.484375 -0.1875 -1.453125 L 19.765625 -62.296875 C 20.003906 -63.078125 20.550781 -63.46875 21.40625 -63.46875 L 37.453125 -63.46875 C 38.296875 -63.46875 38.75 -63.078125 38.8125 -62.296875 L 43.796875 -1.453125 L 43.796875 -1.265625 C 43.796875 -0.421875 43.34375 0 42.4375 0 Z M 21.578125 -22.125 C 21.460938 -21.820312 21.554688 -21.671875 21.859375 -21.671875 L 26.109375 -21.671875 C 26.296875 -21.671875 26.445312 -21.820312 26.5625 -22.125 L 26.203125 -38.890625 C 26.203125 -39.140625 26.125 -39.25 25.96875 -39.21875 C 25.820312 -39.1875 25.75 -39.078125 25.75 -38.890625 Z M 21.578125 -22.125 "/></g></g></g></svg>