<svg xmlns="http://www.w3.org/2000/svg" xmlns:xlink="http://www.w3.org/1999/xlink" width="600" zoomAndPan="magnify" viewBox="0 0 450 225" height="300" preserveAspectRatio="xMidYMid meet" version="1.0"><defs><g/><clipPath id="eb894fc66d"><path d="M 112.257812 112.5 L 353 112.5 L 353 190.5 L 112.257812 190.5 Z M 112.257812 112.5 " clip-rule="nonzero"/></clipPath></defs><rect x="-45" width="540" fill="#ffffff" y="-22.5" height="270" fill-opacity="1"/><rect x="-45" width="540" fill="#14345b" y="-22.5" height="270" fill-opacity="1"/><g fill="#ffffff" fill-opacity="1"><g transform="translate(144.077661, 104.295562)"><g><path d="M 19.125 0.71875 C 13.8125 0.71875 9.628906 -0.679688 6.578125 -3.484375 C 3.523438 -6.296875 2 -10.117188 2 -14.953125 C 2 -15.503906 2.054688 -16.441406 2.171875 -17.765625 L 5.625 -45.796875 C 6.289062 -51.410156 8.585938 -55.878906 12.515625 -59.203125 C 16.441406 -62.535156 21.304688 -64.203125 27.109375 -64.203125 C 32.367188 -64.203125 36.554688 -62.78125 39.671875 -59.9375 C 42.785156 -57.09375 44.34375 -53.253906 44.34375 -48.421875 C 44.34375 -47.753906 44.28125 -46.816406 44.15625 -45.609375 L 43.796875 -42.609375 C 43.609375 -41.703125 43.09375 -41.25 42.25 -41.25 L 28.375 -41.25 C 27.957031 -41.25 27.640625 -41.367188 27.421875 -41.609375 C 27.210938 -41.859375 27.140625 -42.191406 27.203125 -42.609375 L 27.65625 -45.796875 C 27.78125 -46.941406 27.628906 -47.859375 27.203125 -48.546875 C 26.773438 -49.242188 26.171875 -49.59375 25.390625 -49.59375 C 24.546875 -49.59375 23.820312 -49.242188 23.21875 -48.546875 C 22.613281 -47.859375 22.25 -46.941406 22.125 -45.796875 L 18.671875 -17.6875 C 18.554688 -16.53125 18.707031 -15.601562 19.125 -14.90625 C 19.550781 -14.21875 20.15625 -13.875 20.9375 -13.875 C 21.789062 -13.875 22.503906 -14.21875 23.078125 -14.90625 C 23.648438 -15.601562 24 -16.53125 24.125 -17.6875 L 24.75 -22.21875 C 24.75 -22.519531 24.597656 -22.671875 24.296875 -22.671875 L 23.578125 -22.671875 C 23.148438 -22.671875 22.832031 -22.789062 22.625 -23.03125 C 22.414062 -23.269531 22.335938 -23.601562 22.390625 -24.03125 L 23.671875 -34.453125 C 23.722656 -34.878906 23.882812 -35.210938 24.15625 -35.453125 C 24.4375 -35.691406 24.753906 -35.8125 25.109375 -35.8125 L 41.625 -35.8125 C 42.039062 -35.8125 42.351562 -35.691406 42.5625 -35.453125 C 42.78125 -35.210938 42.859375 -34.878906 42.796875 -34.453125 L 40.71875 -17.765625 C 40.050781 -12.148438 37.738281 -7.664062 33.78125 -4.3125 C 29.820312 -0.957031 24.9375 0.71875 19.125 0.71875 Z M 19.125 0.71875 "/></g></g></g><g fill="#ffffff" fill-opacity="1"><g transform="translate(186.144137, 104.295562)"><g><path d="M 19.40625 0.71875 C 14.019531 0.71875 9.785156 -0.742188 6.703125 -3.671875 C 3.617188 -6.597656 2.078125 -10.570312 2.078125 -15.59375 C 2.078125 -16.195312 2.140625 -17.222656 2.265625 -18.671875 L 5.53125 -44.796875 C 6.257812 -50.710938 8.601562 -55.425781 12.5625 -58.9375 C 16.519531 -62.445312 21.460938 -64.203125 27.390625 -64.203125 C 32.703125 -64.203125 36.914062 -62.734375 40.03125 -59.796875 C 43.144531 -56.867188 44.703125 -52.894531 44.703125 -47.875 C 44.703125 -47.269531 44.640625 -46.242188 44.515625 -44.796875 L 41.34375 -18.671875 C 40.625 -12.753906 38.269531 -8.039062 34.28125 -4.53125 C 30.289062 -1.03125 25.332031 0.71875 19.40625 0.71875 Z M 21.21875 -13.875 C 22.125 -13.875 22.894531 -14.234375 23.53125 -14.953125 C 24.164062 -15.679688 24.570312 -16.679688 24.75 -17.953125 L 28.109375 -45.515625 C 28.234375 -46.785156 28.082031 -47.78125 27.65625 -48.5 C 27.226562 -49.226562 26.5625 -49.59375 25.65625 -49.59375 C 24.6875 -49.59375 23.882812 -49.226562 23.25 -48.5 C 22.625 -47.78125 22.25 -46.785156 22.125 -45.515625 L 18.765625 -17.953125 C 18.703125 -17.710938 18.671875 -17.378906 18.671875 -16.953125 C 18.671875 -15.984375 18.894531 -15.226562 19.34375 -14.6875 C 19.800781 -14.144531 20.425781 -13.875 21.21875 -13.875 Z M 21.21875 -13.875 "/></g></g></g><g fill="#ffffff" fill-opacity="1"><g transform="translate(228.663904, 104.295562)"><g><path d="M 1.8125 0 C 1.445312 0 1.160156 -0.117188 0.953125 -0.359375 C 0.742188 -0.597656 0.664062 -0.929688 0.71875 -1.359375 L 8.15625 -62.109375 C 8.21875 -62.535156 8.382812 -62.867188 8.65625 -63.109375 C 8.925781 -63.347656 9.242188 -63.46875 9.609375 -63.46875 L 23.578125 -63.46875 C 23.941406 -63.46875 24.226562 -63.347656 24.4375 -63.109375 C 24.644531 -62.867188 24.71875 -62.535156 24.65625 -62.109375 L 18.953125 -15.046875 C 18.828125 -14.742188 18.945312 -14.59375 19.3125 -14.59375 L 36.546875 -14.59375 C 36.960938 -14.59375 37.273438 -14.472656 37.484375 -14.234375 C 37.703125 -13.992188 37.78125 -13.660156 37.71875 -13.234375 L 36.265625 -1.359375 C 36.085938 -0.453125 35.578125 0 34.734375 0 Z M 1.8125 0 "/></g></g></g><g fill="#ffffff" fill-opacity="1"><g transform="translate(267.919896, 104.295562)"><g><path d="M 41.890625 -50.234375 C 41.828125 -49.804688 41.660156 -49.472656 41.390625 -49.234375 C 41.117188 -48.992188 40.769531 -48.875 40.34375 -48.875 L 23.484375 -48.875 C 23.179688 -48.875 23.03125 -48.722656 23.03125 -48.421875 L 21.9375 -39.53125 C 21.820312 -39.226562 21.945312 -39.078125 22.3125 -39.078125 L 31.09375 -39.078125 C 31.519531 -39.078125 31.835938 -38.957031 32.046875 -38.71875 C 32.265625 -38.476562 32.34375 -38.144531 32.28125 -37.71875 L 30.828125 -25.84375 C 30.648438 -24.9375 30.132812 -24.484375 29.28125 -24.484375 L 20.484375 -24.484375 C 20.179688 -24.484375 20.03125 -24.332031 20.03125 -24.03125 L 17.234375 -1.359375 C 17.171875 -0.929688 17.003906 -0.597656 16.734375 -0.359375 C 16.460938 -0.117188 16.144531 0 15.78125 0 L 1.8125 0 C 1.445312 0 1.160156 -0.117188 0.953125 -0.359375 C 0.742188 -0.597656 0.664062 -0.929688 0.71875 -1.359375 L 8.15625 -62.109375 C 8.21875 -62.535156 8.382812 -62.867188 8.65625 -63.109375 C 8.925781 -63.347656 9.242188 -63.46875 9.609375 -63.46875 L 42.15625 -63.46875 C 42.582031 -63.46875 42.898438 -63.347656 43.109375 -63.109375 C 43.328125 -62.867188 43.40625 -62.535156 43.34375 -62.109375 Z M 41.890625 -50.234375 "/></g></g></g><g clip-path="url(#eb894fc66d)"><path fill="#ff0000" d="M -0.875 112.226562 L 352.714844 112.226562 C 352.714844 138.480469 352.714844 164.730469 352.714844 190.980469 C 234.851562 190.980469 116.988281 190.980469 -0.875 190.980469 C -0.875 164.730469 -0.875 138.480469 -0.875 112.226562 " fill-opacity="1" fill-rule="nonzero"/></g><g fill="#ffffff" fill-opacity="1"><g transform="translate(121.964123, 183.238731)"><g><path d="M 28.203125 0 C 27.347656 0 26.953125 -0.421875 27.015625 -1.265625 L 26.84375 -8.15625 C 26.894531 -8.28125 26.859375 -8.382812 26.734375 -8.46875 C 26.617188 -8.5625 26.503906 -8.609375 26.390625 -8.609375 L 18.5 -8.609375 C 18.195312 -8.609375 17.984375 -8.457031 17.859375 -8.15625 L 16.140625 -1.265625 C 15.960938 -0.421875 15.445312 0 14.59375 0 L 0.8125 0 C -0.09375 0 -0.425781 -0.484375 -0.1875 -1.453125 L 19.765625 -62.296875 C 20.003906 -63.078125 20.550781 -63.46875 21.40625 -63.46875 L 37.453125 -63.46875 C 38.296875 -63.46875 38.75 -63.078125 38.8125 -62.296875 L 43.796875 -1.453125 L 43.796875 -1.265625 C 43.796875 -0.421875 43.34375 0 42.4375 0 Z M 21.578125 -22.125 C 21.460938 -21.820312 21.554688 -21.671875 21.859375 -21.671875 L 26.109375 -21.671875 C 26.296875 -21.671875 26.445312 -21.820312 26.5625 -22.125 L 26.203125 -38.890625 C 26.203125 -39.140625 26.125 -39.25 25.96875 -39.21875 C 25.820312 -39.1875 25.75 -39.078125 25.75 -38.890625 Z M 21.578125 -22.125 "/></g></g></g><g fill="#ffffff" fill-opacity="1"><g transform="translate(168.654282, 183.238731)"><g><path d="M 24.578125 0 C 23.847656 0 23.421875 -0.390625 23.296875 -1.171875 L 20.671875 -24.03125 C 20.671875 -24.269531 20.582031 -24.390625 20.40625 -24.390625 C 20.15625 -24.390625 20.03125 -24.238281 20.03125 -23.9375 L 17.234375 -1.359375 C 17.171875 -0.929688 17.003906 -0.597656 16.734375 -0.359375 C 16.460938 -0.117188 16.144531 0 15.78125 0 L 1.8125 0 C 1.445312 0 1.160156 -0.117188 0.953125 -0.359375 C 0.742188 -0.597656 0.664062 -0.929688 0.71875 -1.359375 L 8.15625 -62.109375 C 8.21875 -62.535156 8.382812 -62.867188 8.65625 -63.109375 C 8.925781 -63.347656 9.242188 -63.46875 9.609375 -63.46875 L 29.46875 -63.46875 C 34.300781 -63.46875 38.125 -61.925781 40.9375 -58.84375 C 43.75 -55.757812 45.15625 -51.679688 45.15625 -46.609375 C 45.15625 -45.148438 45.09375 -44.03125 44.96875 -43.25 C 44.550781 -39.925781 43.613281 -36.945312 42.15625 -34.3125 C 40.707031 -31.6875 38.835938 -29.554688 36.546875 -27.921875 C 36.242188 -27.742188 36.148438 -27.535156 36.265625 -27.296875 L 40.171875 -1.546875 L 40.171875 -1.171875 C 40.171875 -0.816406 40.046875 -0.53125 39.796875 -0.3125 C 39.554688 -0.101562 39.253906 0 38.890625 0 Z M 23.484375 -48.875 C 23.179688 -48.875 23.03125 -48.722656 23.03125 -48.421875 L 21.671875 -37.8125 C 21.671875 -37.507812 21.820312 -37.359375 22.125 -37.359375 L 23.296875 -37.359375 C 24.753906 -37.359375 25.976562 -37.992188 26.96875 -39.265625 C 27.96875 -40.535156 28.46875 -42.285156 28.46875 -44.515625 C 28.46875 -45.910156 28.132812 -46.984375 27.46875 -47.734375 C 26.800781 -48.492188 25.894531 -48.875 24.75 -48.875 Z M 23.484375 -48.875 "/></g></g></g><g fill="#ffffff" fill-opacity="1"><g transform="translate(211.718009, 183.238731)"><g><path d="M 41.890625 -50.234375 C 41.828125 -49.804688 41.660156 -49.472656 41.390625 -49.234375 C 41.117188 -48.992188 40.769531 -48.875 40.34375 -48.875 L 23.484375 -48.875 C 23.179688 -48.875 23.03125 -48.722656 23.03125 -48.421875 L 21.9375 -39.53125 C 21.820312 -39.226562 21.945312 -39.078125 22.3125 -39.078125 L 31.09375 -39.078125 C 31.519531 -39.078125 31.835938 -38.957031 32.046875 -38.71875 C 32.265625 -38.476562 32.34375 -38.144531 32.28125 -37.71875 L 30.828125 -25.84375 C 30.648438 -24.9375 30.132812 -24.484375 29.28125 -24.484375 L 20.484375 -24.484375 C 20.179688 -24.484375 20.03125 -24.332031 20.03125 -24.03125 L 18.953125 -15.046875 C 18.828125 -14.742188 18.945312 -14.59375 19.3125 -14.59375 L 36.171875 -14.59375 C 36.597656 -14.59375 36.914062 -14.472656 37.125 -14.234375 C 37.34375 -13.992188 37.421875 -13.660156 37.359375 -13.234375 L 35.90625 -1.359375 C 35.84375 -0.929688 35.675781 -0.597656 35.40625 -0.359375 C 35.132812 -0.117188 34.785156 0 34.359375 0 L 1.8125 0 C 1.445312 0 1.160156 -0.117188 0.953125 -0.359375 C 0.742188 -0.597656 0.664062 -0.929688 0.71875 -1.359375 L 8.15625 -62.109375 C 8.21875 -62.535156 8.382812 -62.867188 8.65625 -63.109375 C 8.925781 -63.347656 9.242188 -63.46875 9.609375 -63.46875 L 42.15625 -63.46875 C 42.582031 -63.46875 42.898438 -63.347656 43.109375 -63.109375 C 43.328125 -62.867188 43.40625 -62.535156 43.34375 -62.109375 Z M 41.890625 -50.234375 "/></g></g></g><g fill="#ffffff" fill-opacity="1"><g transform="translate(250.792681, 183.238731)"><g><path d="M 33.640625 -62.109375 C 33.703125 -62.535156 33.867188 -62.867188 34.140625 -63.109375 C 34.410156 -63.347656 34.757812 -63.46875 35.1875 -63.46875 L 48.875 -63.46875 C 49.289062 -63.46875 49.601562 -63.347656 49.8125 -63.109375 C 50.03125 -62.867188 50.109375 -62.535156 50.046875 -62.109375 L 42.53125 -1.359375 C 42.46875 -0.929688 42.3125 -0.597656 42.0625 -0.359375 C 41.820312 -0.117188 41.492188 0 41.078125 0 L 25.390625 0 C 24.660156 0 24.238281 -0.390625 24.125 -1.171875 L 20.671875 -29.015625 C 20.671875 -29.191406 20.609375 -29.28125 20.484375 -29.28125 C 20.367188 -29.28125 20.3125 -29.191406 20.3125 -29.015625 L 17.046875 -1.359375 C 16.984375 -0.929688 16.816406 -0.597656 16.546875 -0.359375 C 16.273438 -0.117188 15.957031 0 15.59375 0 L 1.8125 0 C 1.445312 0 1.160156 -0.117188 0.953125 -0.359375 C 0.742188 -0.597656 0.664062 -0.929688 0.71875 -1.359375 L 8.15625 -62.109375 C 8.21875 -62.535156 8.382812 -62.867188 8.65625 -63.109375 C 8.925781 -63.347656 9.242188 -63.46875 9.609375 -63.46875 L 25.109375 -63.46875 C 25.835938 -63.46875 26.265625 -63.078125 26.390625 -62.296875 L 29.921875 -34.28125 C 29.921875 -34.09375 29.976562 -34.03125 30.09375 -34.09375 C 30.21875 -34.15625 30.3125 -34.242188 30.375 -34.359375 Z M 33.640625 -62.109375 "/></g></g></g><g fill="#ffffff" fill-opacity="1"><g transform="translate(297.210851, 183.238731)"><g><path d="M 28.203125 0 C 27.347656 0 26.953125 -0.421875 27.015625 -1.265625 L 26.84375 -8.15625 C 26.894531 -8.28125 26.859375 -8.382812 26.734375 -8.46875 C 26.617188 -8.5625 26.503906 -8.609375 26.390625 -8.609375 L 18.5 -8.609375 C 18.195312 -8.609375 17.984375 -8.457031 17.859375 -8.15625 L 16.140625 -1.265625 C 15.960938 -0.421875 15.445312 0 14.59375 0 L 0.8125 0 C -0.09375 0 -0.425781 -0.484375 -0.1875 -1.453125 L 19.765625 -62.296875 C 20.003906 -63.078125 20.550781 -63.46875 21.40625 -63.46875 L 37.453125 -63.46875 C 38.296875 -63.46875 38.75 -63.078125 38.8125 -62.296875 L 43.796875 -1.453125 L 43.796875 -1.265625 C 43.796875 -0.421875 43.34375 0 42.4375 0 Z M 21.578125 -22.125 C 21.460938 -21.820312 21.554688 -21.671875 21.859375 -21.671875 L 26.109375 -21.671875 C 26.296875 -21.671875 26.445312 -21.820312 26.5625 -22.125 L 26.203125 -38.890625 C 26.203125 -39.140625 26.125 -39.25 25.96875 -39.21875 C 25.820312 -39.1875 25.75 -39.078125 25.75 -38.890625 Z M 21.578125 -22.125 "/></g></g></g></svg>