<svg xmlns="http://www.w3.org/2000/svg" xmlns:xlink="http://www.w3.org/1999/xlink" width="600" zoomAndPan="magnify" viewBox="0 0 450 225" height="300" preserveAspectRatio="xMidYMid meet" version="1.0"><defs><g/><clipPath id="5468c6dc8c"><path d="M 180.96875 99.664062 L 422 99.664062 L 422 177.664062 L 180.96875 177.664062 Z M 180.96875 99.664062 " clip-rule="nonzero"/></clipPath></defs><rect x="-45" width="540" fill="#ffffff" y="-22.5" height="270" fill-opacity="1"/><rect x="-45" width="540" fill="#14345b" y="-22.5" height="270" fill-opacity="1"/><g fill="#ffffff" fill-opacity="1"><g transform="translate(31.771399, 96.742356)"><g><path d="M 24.6875 -51.390625 C 24.738281 -51.742188 24.863281 -52.019531 25.0625 -52.21875 C 25.257812 -52.414062 25.535156 -52.515625 25.890625 -52.515625 L 37.359375 -52.515625 C 37.710938 -52.515625 37.976562 -52.414062 38.15625 -52.21875 C 38.332031 -52.019531 38.394531 -51.742188 38.34375 -51.390625 L 32.1875 -1.125 C 32.132812 -0.769531 31.992188 -0.492188 31.765625 -0.296875 C 31.546875 -0.0976562 31.257812 0 30.90625 0 L 19.4375 0 C 19.082031 0 18.816406 -0.0976562 18.640625 -0.296875 C 18.460938 -0.492188 18.398438 -0.769531 18.453125 -1.125 L 20.78125 -19.890625 C 20.78125 -20.140625 20.679688 -20.265625 20.484375 -20.265625 L 16.953125 -20.265625 C 16.703125 -20.265625 16.578125 -20.140625 16.578125 -19.890625 L 14.25 -1.125 C 14.207031 -0.769531 14.070312 -0.492188 13.84375 -0.296875 C 13.613281 -0.0976562 13.351562 0 13.0625 0 L 1.5 0 C 1.195312 0 0.957031 -0.0976562 0.78125 -0.296875 C 0.613281 -0.492188 0.550781 -0.769531 0.59375 -1.125 L 6.75 -51.390625 C 6.800781 -51.742188 6.9375 -52.019531 7.15625 -52.21875 C 7.382812 -52.414062 7.648438 -52.515625 7.953125 -52.515625 L 19.515625 -52.515625 C 19.804688 -52.515625 20.039062 -52.414062 20.21875 -52.21875 C 20.394531 -52.019531 20.457031 -51.742188 20.40625 -51.390625 L 18.15625 -32.71875 C 18.050781 -32.46875 18.148438 -32.34375 18.453125 -32.34375 L 21.984375 -32.34375 C 22.085938 -32.34375 22.175781 -32.378906 22.25 -32.453125 C 22.320312 -32.523438 22.359375 -32.613281 22.359375 -32.71875 Z M 24.6875 -51.390625 "/></g></g></g><g fill="#ffffff" fill-opacity="1"><g transform="translate(67.11295, 96.742356)"><g><path d="M 16.0625 0.59375 C 11.601562 0.59375 8.097656 -0.613281 5.546875 -3.03125 C 2.992188 -5.457031 1.71875 -8.75 1.71875 -12.90625 C 1.71875 -13.40625 1.769531 -14.253906 1.875 -15.453125 L 4.578125 -37.0625 C 5.179688 -41.96875 7.117188 -45.867188 10.390625 -48.765625 C 13.671875 -51.671875 17.757812 -53.125 22.65625 -53.125 C 27.0625 -53.125 30.550781 -51.910156 33.125 -49.484375 C 35.695312 -47.054688 36.984375 -43.765625 36.984375 -39.609375 C 36.984375 -39.109375 36.9375 -38.257812 36.84375 -37.0625 L 34.21875 -15.453125 C 33.613281 -10.554688 31.660156 -6.65625 28.359375 -3.75 C 25.054688 -0.851562 20.957031 0.59375 16.0625 0.59375 Z M 17.5625 -11.484375 C 18.3125 -11.484375 18.945312 -11.78125 19.46875 -12.375 C 20 -12.976562 20.335938 -13.804688 20.484375 -14.859375 L 23.265625 -37.671875 C 23.359375 -38.710938 23.226562 -39.535156 22.875 -40.140625 C 22.53125 -40.742188 21.984375 -41.046875 21.234375 -41.046875 C 20.429688 -41.046875 19.765625 -40.742188 19.234375 -40.140625 C 18.710938 -39.535156 18.40625 -38.710938 18.3125 -37.671875 L 15.53125 -14.859375 C 15.476562 -14.660156 15.453125 -14.382812 15.453125 -14.03125 C 15.453125 -13.226562 15.640625 -12.601562 16.015625 -12.15625 C 16.390625 -11.707031 16.90625 -11.484375 17.5625 -11.484375 Z M 17.5625 -11.484375 "/></g></g></g><g fill="#ffffff" fill-opacity="1"><g transform="translate(102.304435, 96.742356)"><g><path d="M 20.328125 0 C 19.734375 0 19.382812 -0.320312 19.28125 -0.96875 L 17.109375 -19.890625 C 17.109375 -20.085938 17.03125 -20.1875 16.875 -20.1875 C 16.675781 -20.1875 16.578125 -20.0625 16.578125 -19.8125 L 14.25 -1.125 C 14.207031 -0.769531 14.070312 -0.492188 13.84375 -0.296875 C 13.613281 -0.0976562 13.351562 0 13.0625 0 L 1.5 0 C 1.195312 0 0.957031 -0.0976562 0.78125 -0.296875 C 0.613281 -0.492188 0.550781 -0.769531 0.59375 -1.125 L 6.75 -51.390625 C 6.800781 -51.742188 6.9375 -52.019531 7.15625 -52.21875 C 7.382812 -52.414062 7.648438 -52.515625 7.953125 -52.515625 L 24.390625 -52.515625 C 28.390625 -52.515625 31.550781 -51.238281 33.875 -48.6875 C 36.195312 -46.144531 37.359375 -42.769531 37.359375 -38.5625 C 37.359375 -37.363281 37.3125 -36.441406 37.21875 -35.796875 C 36.863281 -33.035156 36.085938 -30.566406 34.890625 -28.390625 C 33.691406 -26.222656 32.140625 -24.460938 30.234375 -23.109375 C 29.984375 -22.960938 29.910156 -22.785156 30.015625 -22.578125 L 33.234375 -1.28125 L 33.234375 -0.96875 C 33.234375 -0.675781 33.132812 -0.441406 32.9375 -0.265625 C 32.738281 -0.0859375 32.488281 0 32.1875 0 Z M 19.4375 -40.4375 C 19.1875 -40.4375 19.0625 -40.3125 19.0625 -40.0625 L 17.9375 -31.28125 C 17.9375 -31.03125 18.0625 -30.90625 18.3125 -30.90625 L 19.28125 -30.90625 C 20.476562 -30.90625 21.488281 -31.429688 22.3125 -32.484375 C 23.144531 -33.535156 23.5625 -34.988281 23.5625 -36.84375 C 23.5625 -37.988281 23.285156 -38.875 22.734375 -39.5 C 22.179688 -40.125 21.429688 -40.4375 20.484375 -40.4375 Z M 19.4375 -40.4375 "/></g></g></g><g fill="#ffffff" fill-opacity="1"><g transform="translate(137.946131, 96.742356)"><g><path d="M 15.609375 0.59375 C 11.304688 0.59375 7.90625 -0.515625 5.40625 -2.734375 C 2.90625 -4.960938 1.65625 -7.925781 1.65625 -11.625 C 1.65625 -11.976562 1.703125 -12.601562 1.796875 -13.5 L 2.09375 -15.828125 C 2.144531 -16.179688 2.28125 -16.457031 2.5 -16.65625 C 2.726562 -16.851562 2.992188 -16.953125 3.296875 -16.953125 L 14.703125 -16.953125 C 15.003906 -16.953125 15.242188 -16.851562 15.421875 -16.65625 C 15.597656 -16.457031 15.660156 -16.179688 15.609375 -15.828125 L 15.453125 -14.1875 C 15.359375 -13.382812 15.457031 -12.734375 15.75 -12.234375 C 16.050781 -11.734375 16.503906 -11.484375 17.109375 -11.484375 C 17.753906 -11.484375 18.300781 -11.753906 18.75 -12.296875 C 19.207031 -12.847656 19.4375 -13.523438 19.4375 -14.328125 C 19.4375 -15.078125 19.070312 -15.851562 18.34375 -16.65625 C 17.613281 -17.457031 16.226562 -18.679688 14.1875 -20.328125 C 12.175781 -21.984375 10.519531 -23.445312 9.21875 -24.71875 C 7.925781 -26 6.800781 -27.578125 5.84375 -29.453125 C 4.894531 -31.328125 4.421875 -33.460938 4.421875 -35.859375 C 4.421875 -36.316406 4.472656 -37.09375 4.578125 -38.1875 C 5.128906 -42.644531 6.976562 -46.25 10.125 -49 C 13.28125 -51.75 17.207031 -53.125 21.90625 -53.125 C 26.207031 -53.125 29.597656 -51.972656 32.078125 -49.671875 C 34.554688 -47.367188 35.796875 -44.265625 35.796875 -40.359375 C 35.796875 -39.910156 35.742188 -39.1875 35.640625 -38.1875 L 35.421875 -36.546875 C 35.367188 -36.191406 35.226562 -35.914062 35 -35.71875 C 34.78125 -35.519531 34.519531 -35.421875 34.21875 -35.421875 L 22.890625 -35.421875 C 22.585938 -35.421875 22.347656 -35.519531 22.171875 -35.71875 C 21.992188 -35.914062 21.929688 -36.191406 21.984375 -36.546875 L 22.203125 -38.484375 C 22.253906 -39.234375 22.117188 -39.847656 21.796875 -40.328125 C 21.472656 -40.804688 21.007812 -41.046875 20.40625 -41.046875 C 19.707031 -41.046875 19.128906 -40.742188 18.671875 -40.140625 C 18.222656 -39.535156 18 -38.734375 18 -37.734375 C 18 -36.890625 18.347656 -36.015625 19.046875 -35.109375 C 19.753906 -34.210938 21.054688 -32.960938 22.953125 -31.359375 C 25.503906 -29.210938 27.457031 -27.472656 28.8125 -26.140625 C 30.164062 -24.816406 31.226562 -23.367188 32 -21.796875 C 32.769531 -20.222656 33.15625 -18.4375 33.15625 -16.4375 C 33.15625 -16.03125 33.109375 -15.328125 33.015625 -14.328125 C 32.410156 -9.773438 30.519531 -6.148438 27.34375 -3.453125 C 24.164062 -0.753906 20.253906 0.59375 15.609375 0.59375 Z M 15.609375 0.59375 "/></g></g></g><g fill="#ffffff" fill-opacity="1"><g transform="translate(171.636918, 96.742356)"><g><path d="M 34.671875 -41.5625 C 34.617188 -41.21875 34.476562 -40.941406 34.25 -40.734375 C 34.03125 -40.535156 33.742188 -40.4375 33.390625 -40.4375 L 19.4375 -40.4375 C 19.1875 -40.4375 19.0625 -40.3125 19.0625 -40.0625 L 18.15625 -32.71875 C 18.050781 -32.46875 18.148438 -32.34375 18.453125 -32.34375 L 25.734375 -32.34375 C 26.085938 -32.34375 26.347656 -32.238281 26.515625 -32.03125 C 26.691406 -31.832031 26.757812 -31.5625 26.71875 -31.21875 L 25.515625 -21.390625 C 25.359375 -20.640625 24.929688 -20.265625 24.234375 -20.265625 L 16.953125 -20.265625 C 16.703125 -20.265625 16.578125 -20.140625 16.578125 -19.890625 L 15.6875 -12.453125 C 15.582031 -12.203125 15.679688 -12.078125 15.984375 -12.078125 L 29.9375 -12.078125 C 30.289062 -12.078125 30.550781 -11.976562 30.71875 -11.78125 C 30.894531 -11.582031 30.957031 -11.304688 30.90625 -10.953125 L 29.71875 -1.125 C 29.664062 -0.769531 29.523438 -0.492188 29.296875 -0.296875 C 29.078125 -0.0976562 28.789062 0 28.4375 0 L 1.5 0 C 1.195312 0 0.957031 -0.0976562 0.78125 -0.296875 C 0.613281 -0.492188 0.550781 -0.769531 0.59375 -1.125 L 6.75 -51.390625 C 6.800781 -51.742188 6.9375 -52.019531 7.15625 -52.21875 C 7.382812 -52.414062 7.648438 -52.515625 7.953125 -52.515625 L 34.890625 -52.515625 C 35.242188 -52.515625 35.503906 -52.414062 35.671875 -52.21875 C 35.847656 -52.019531 35.910156 -51.742188 35.859375 -51.390625 Z M 34.671875 -41.5625 "/></g></g></g><g fill="#ffffff" fill-opacity="1"><g transform="translate(203.977073, 96.742356)"><g/></g></g><g fill="#ffffff" fill-opacity="1"><g transform="translate(218.533888, 96.742356)"><g><path d="M 20.328125 0 C 19.734375 0 19.382812 -0.320312 19.28125 -0.96875 L 17.109375 -19.890625 C 17.109375 -20.085938 17.03125 -20.1875 16.875 -20.1875 C 16.675781 -20.1875 16.578125 -20.0625 16.578125 -19.8125 L 14.25 -1.125 C 14.207031 -0.769531 14.070312 -0.492188 13.84375 -0.296875 C 13.613281 -0.0976562 13.351562 0 13.0625 0 L 1.5 0 C 1.195312 0 0.957031 -0.0976562 0.78125 -0.296875 C 0.613281 -0.492188 0.550781 -0.769531 0.59375 -1.125 L 6.75 -51.390625 C 6.800781 -51.742188 6.9375 -52.019531 7.15625 -52.21875 C 7.382812 -52.414062 7.648438 -52.515625 7.953125 -52.515625 L 24.390625 -52.515625 C 28.390625 -52.515625 31.550781 -51.238281 33.875 -48.6875 C 36.195312 -46.144531 37.359375 -42.769531 37.359375 -38.5625 C 37.359375 -37.363281 37.3125 -36.441406 37.21875 -35.796875 C 36.863281 -33.035156 36.085938 -30.566406 34.890625 -28.390625 C 33.691406 -26.222656 32.140625 -24.460938 30.234375 -23.109375 C 29.984375 -22.960938 29.910156 -22.785156 30.015625 -22.578125 L 33.234375 -1.28125 L 33.234375 -0.96875 C 33.234375 -0.675781 33.132812 -0.441406 32.9375 -0.265625 C 32.738281 -0.0859375 32.488281 0 32.1875 0 Z M 19.4375 -40.4375 C 19.1875 -40.4375 19.0625 -40.3125 19.0625 -40.0625 L 17.9375 -31.28125 C 17.9375 -31.03125 18.0625 -30.90625 18.3125 -30.90625 L 19.28125 -30.90625 C 20.476562 -30.90625 21.488281 -31.429688 22.3125 -32.484375 C 23.144531 -33.535156 23.5625 -34.988281 23.5625 -36.84375 C 23.5625 -37.988281 23.285156 -38.875 22.734375 -39.5 C 22.179688 -40.125 21.429688 -40.4375 20.484375 -40.4375 Z M 19.4375 -40.4375 "/></g></g></g><g fill="#ffffff" fill-opacity="1"><g transform="translate(254.175595, 96.742356)"><g><path d="M 23.328125 0 C 22.628906 0 22.304688 -0.347656 22.359375 -1.046875 L 22.203125 -6.75 C 22.253906 -6.851562 22.226562 -6.941406 22.125 -7.015625 C 22.03125 -7.085938 21.929688 -7.125 21.828125 -7.125 L 15.3125 -7.125 C 15.0625 -7.125 14.882812 -7 14.78125 -6.75 L 13.359375 -1.046875 C 13.203125 -0.347656 12.773438 0 12.078125 0 L 0.671875 0 C -0.078125 0 -0.351562 -0.398438 -0.15625 -1.203125 L 16.359375 -51.546875 C 16.554688 -52.191406 17.003906 -52.515625 17.703125 -52.515625 L 30.984375 -52.515625 C 31.679688 -52.515625 32.054688 -52.191406 32.109375 -51.546875 L 36.234375 -1.203125 L 36.234375 -1.046875 C 36.234375 -0.347656 35.859375 0 35.109375 0 Z M 17.859375 -18.3125 C 17.753906 -18.0625 17.828125 -17.9375 18.078125 -17.9375 L 21.609375 -17.9375 C 21.753906 -17.9375 21.878906 -18.0625 21.984375 -18.3125 L 21.6875 -32.1875 C 21.6875 -32.382812 21.625 -32.46875 21.5 -32.4375 C 21.375 -32.414062 21.3125 -32.332031 21.3125 -32.1875 Z M 17.859375 -18.3125 "/></g></g></g><g fill="#ffffff" fill-opacity="1"><g transform="translate(292.818698, 96.742356)"><g><path d="M 15.828125 0.59375 C 11.472656 0.59375 8.03125 -0.601562 5.5 -3 C 2.976562 -5.40625 1.71875 -8.679688 1.71875 -12.828125 C 1.71875 -13.328125 1.769531 -14.175781 1.875 -15.375 L 4.578125 -37.296875 C 5.179688 -42.140625 7.109375 -45.988281 10.359375 -48.84375 C 13.609375 -51.695312 17.632812 -53.125 22.4375 -53.125 C 26.789062 -53.125 30.238281 -51.9375 32.78125 -49.5625 C 35.332031 -47.1875 36.609375 -43.921875 36.609375 -39.765625 C 36.609375 -39.316406 36.5625 -38.492188 36.46875 -37.296875 L 36.390625 -36.921875 C 36.335938 -36.566406 36.195312 -36.273438 35.96875 -36.046875 C 35.75 -35.828125 35.488281 -35.71875 35.1875 -35.71875 L 23.640625 -35.34375 C 22.890625 -35.34375 22.5625 -35.691406 22.65625 -36.390625 L 22.890625 -38.265625 C 22.984375 -39.117188 22.851562 -39.796875 22.5 -40.296875 C 22.15625 -40.796875 21.660156 -41.046875 21.015625 -41.046875 C 20.304688 -41.046875 19.710938 -40.796875 19.234375 -40.296875 C 18.765625 -39.796875 18.476562 -39.117188 18.375 -38.265625 L 15.453125 -14.1875 C 15.359375 -13.382812 15.472656 -12.734375 15.796875 -12.234375 C 16.117188 -11.734375 16.628906 -11.484375 17.328125 -11.484375 C 18.023438 -11.484375 18.613281 -11.71875 19.09375 -12.1875 C 19.570312 -12.664062 19.859375 -13.332031 19.953125 -14.1875 L 20.1875 -16.203125 C 20.238281 -16.554688 20.375 -16.816406 20.59375 -16.984375 C 20.820312 -17.160156 21.085938 -17.25 21.390625 -17.25 L 32.859375 -16.875 C 33.210938 -16.875 33.476562 -16.757812 33.65625 -16.53125 C 33.832031 -16.3125 33.894531 -16.03125 33.84375 -15.6875 L 33.765625 -15.375 C 33.160156 -10.53125 31.21875 -6.65625 27.9375 -3.75 C 24.664062 -0.851562 20.628906 0.59375 15.828125 0.59375 Z M 15.828125 0.59375 "/></g></g></g><g fill="#ffffff" fill-opacity="1"><g transform="translate(327.484933, 96.742356)"><g><path d="M 1.5 0 C 1.195312 0 0.957031 -0.0976562 0.78125 -0.296875 C 0.613281 -0.492188 0.550781 -0.769531 0.59375 -1.125 L 6.75 -51.390625 C 6.800781 -51.742188 6.9375 -52.019531 7.15625 -52.21875 C 7.382812 -52.414062 7.648438 -52.515625 7.953125 -52.515625 L 19.515625 -52.515625 C 19.804688 -52.515625 20.039062 -52.414062 20.21875 -52.21875 C 20.394531 -52.019531 20.457031 -51.742188 20.40625 -51.390625 L 14.25 -1.125 C 14.207031 -0.769531 14.070312 -0.492188 13.84375 -0.296875 C 13.613281 -0.0976562 13.351562 0 13.0625 0 Z M 1.5 0 "/></g></g></g><g fill="#ffffff" fill-opacity="1"><g transform="translate(344.968117, 96.742356)"><g><path d="M 27.84375 -51.390625 C 27.882812 -51.742188 28.019531 -52.019531 28.25 -52.21875 C 28.476562 -52.414062 28.765625 -52.515625 29.109375 -52.515625 L 40.4375 -52.515625 C 40.789062 -52.515625 41.054688 -52.414062 41.234375 -52.21875 C 41.410156 -52.019531 41.472656 -51.742188 41.421875 -51.390625 L 35.1875 -1.125 C 35.132812 -0.769531 35.007812 -0.492188 34.8125 -0.296875 C 34.613281 -0.0976562 34.335938 0 33.984375 0 L 21.015625 0 C 20.410156 0 20.054688 -0.320312 19.953125 -0.96875 L 17.109375 -24.015625 C 17.109375 -24.160156 17.054688 -24.234375 16.953125 -24.234375 C 16.859375 -24.234375 16.8125 -24.160156 16.8125 -24.015625 L 14.109375 -1.125 C 14.054688 -0.769531 13.914062 -0.492188 13.6875 -0.296875 C 13.46875 -0.0976562 13.207031 0 12.90625 0 L 1.5 0 C 1.195312 0 0.957031 -0.0976562 0.78125 -0.296875 C 0.613281 -0.492188 0.550781 -0.769531 0.59375 -1.125 L 6.75 -51.390625 C 6.800781 -51.742188 6.9375 -52.019531 7.15625 -52.21875 C 7.382812 -52.414062 7.648438 -52.515625 7.953125 -52.515625 L 20.78125 -52.515625 C 21.382812 -52.515625 21.734375 -52.191406 21.828125 -51.546875 L 24.765625 -28.359375 C 24.765625 -28.210938 24.8125 -28.160156 24.90625 -28.203125 C 25.007812 -28.253906 25.085938 -28.332031 25.140625 -28.4375 Z M 27.84375 -51.390625 "/></g></g></g><g fill="#ffffff" fill-opacity="1"><g transform="translate(383.386115, 96.742356)"><g><path d="M 15.828125 0.59375 C 11.429688 0.59375 7.96875 -0.566406 5.4375 -2.890625 C 2.914062 -5.210938 1.65625 -8.375 1.65625 -12.375 C 1.65625 -12.832031 1.703125 -13.609375 1.796875 -14.703125 L 4.65625 -37.890625 C 5.207031 -42.546875 7.109375 -46.25 10.359375 -49 C 13.609375 -51.75 17.632812 -53.125 22.4375 -53.125 C 26.789062 -53.125 30.253906 -51.945312 32.828125 -49.59375 C 35.398438 -47.238281 36.6875 -44.0625 36.6875 -40.0625 C 36.6875 -39.507812 36.640625 -38.734375 36.546875 -37.734375 L 36.234375 -35.265625 C 36.085938 -34.515625 35.664062 -34.140625 34.96875 -34.140625 L 23.484375 -34.140625 C 23.128906 -34.140625 22.863281 -34.238281 22.6875 -34.4375 C 22.519531 -34.632812 22.460938 -34.910156 22.515625 -35.265625 L 22.890625 -37.890625 C 22.984375 -38.835938 22.851562 -39.597656 22.5 -40.171875 C 22.15625 -40.753906 21.660156 -41.046875 21.015625 -41.046875 C 20.304688 -41.046875 19.703125 -40.753906 19.203125 -40.171875 C 18.703125 -39.597656 18.40625 -38.835938 18.3125 -37.890625 L 15.453125 -14.625 C 15.359375 -13.675781 15.484375 -12.914062 15.828125 -12.34375 C 16.179688 -11.769531 16.679688 -11.484375 17.328125 -11.484375 C 18.023438 -11.484375 18.613281 -11.769531 19.09375 -12.34375 C 19.570312 -12.914062 19.859375 -13.675781 19.953125 -14.625 L 20.484375 -18.375 C 20.484375 -18.632812 20.359375 -18.765625 20.109375 -18.765625 L 19.515625 -18.765625 C 19.160156 -18.765625 18.894531 -18.863281 18.71875 -19.0625 C 18.539062 -19.257812 18.476562 -19.535156 18.53125 -19.890625 L 19.578125 -28.515625 C 19.628906 -28.859375 19.765625 -29.128906 19.984375 -29.328125 C 20.210938 -29.535156 20.476562 -29.640625 20.78125 -29.640625 L 34.4375 -29.640625 C 34.789062 -29.640625 35.050781 -29.535156 35.21875 -29.328125 C 35.394531 -29.128906 35.460938 -28.859375 35.421875 -28.515625 L 33.6875 -14.703125 C 33.132812 -10.054688 31.21875 -6.34375 27.9375 -3.5625 C 24.664062 -0.789062 20.628906 0.59375 15.828125 0.59375 Z M 15.828125 0.59375 "/></g></g></g><g clip-path="url(#5468c6dc8c)"><path fill="#ff0000" d="M 67.835938 99.390625 L 421.421875 99.390625 C 421.421875 125.644531 421.421875 151.894531 421.421875 178.144531 C 303.5625 178.144531 185.699219 178.144531 67.835938 178.144531 C 67.835938 151.894531 67.835938 125.644531 67.835938 99.390625 " fill-opacity="1" fill-rule="nonzero"/></g><g fill="#ffffff" fill-opacity="1"><g transform="translate(190.672163, 170.684995)"><g><path d="M 28.203125 0 C 27.347656 0 26.953125 -0.421875 27.015625 -1.265625 L 26.84375 -8.15625 C 26.894531 -8.28125 26.859375 -8.382812 26.734375 -8.46875 C 26.617188 -8.5625 26.503906 -8.609375 26.390625 -8.609375 L 18.5 -8.609375 C 18.195312 -8.609375 17.984375 -8.457031 17.859375 -8.15625 L 16.140625 -1.265625 C 15.960938 -0.421875 15.445312 0 14.59375 0 L 0.8125 0 C -0.09375 0 -0.425781 -0.484375 -0.1875 -1.453125 L 19.765625 -62.296875 C 20.003906 -63.078125 20.550781 -63.46875 21.40625 -63.46875 L 37.453125 -63.46875 C 38.296875 -63.46875 38.75 -63.078125 38.8125 -62.296875 L 43.796875 -1.453125 L 43.796875 -1.265625 C 43.796875 -0.421875 43.34375 0 42.4375 0 Z M 21.578125 -22.125 C 21.460938 -21.820312 21.554688 -21.671875 21.859375 -21.671875 L 26.109375 -21.671875 C 26.296875 -21.671875 26.445312 -21.820312 26.5625 -22.125 L 26.203125 -38.890625 C 26.203125 -39.140625 26.125 -39.25 25.96875 -39.21875 C 25.820312 -39.1875 25.75 -39.078125 25.75 -38.890625 Z M 21.578125 -22.125 "/></g></g></g><g fill="#ffffff" fill-opacity="1"><g transform="translate(237.362322, 170.684995)"><g><path d="M 24.578125 0 C 23.847656 0 23.421875 -0.390625 23.296875 -1.171875 L 20.671875 -24.03125 C 20.671875 -24.269531 20.582031 -24.390625 20.40625 -24.390625 C 20.15625 -24.390625 20.03125 -24.238281 20.03125 -23.9375 L 17.234375 -1.359375 C 17.171875 -0.929688 17.003906 -0.597656 16.734375 -0.359375 C 16.460938 -0.117188 16.144531 0 15.78125 0 L 1.8125 0 C 1.445312 0 1.160156 -0.117188 0.953125 -0.359375 C 0.742188 -0.597656 0.664062 -0.929688 0.71875 -1.359375 L 8.15625 -62.109375 C 8.21875 -62.535156 8.382812 -62.867188 8.65625 -63.109375 C 8.925781 -63.347656 9.242188 -63.46875 9.609375 -63.46875 L 29.46875 -63.46875 C 34.300781 -63.46875 38.125 -61.925781 40.9375 -58.84375 C 43.75 -55.757812 45.15625 -51.679688 45.15625 -46.609375 C 45.15625 -45.148438 45.09375 -44.03125 44.96875 -43.25 C 44.550781 -39.925781 43.613281 -36.945312 42.15625 -34.3125 C 40.707031 -31.6875 38.835938 -29.554688 36.546875 -27.921875 C 36.242188 -27.742188 36.148438 -27.535156 36.265625 -27.296875 L 40.171875 -1.546875 L 40.171875 -1.171875 C 40.171875 -0.816406 40.046875 -0.53125 39.796875 -0.3125 C 39.554688 -0.101562 39.253906 0 38.890625 0 Z M 23.484375 -48.875 C 23.179688 -48.875 23.03125 -48.722656 23.03125 -48.421875 L 21.671875 -37.8125 C 21.671875 -37.507812 21.820312 -37.359375 22.125 -37.359375 L 23.296875 -37.359375 C 24.753906 -37.359375 25.976562 -37.992188 26.96875 -39.265625 C 27.96875 -40.535156 28.46875 -42.285156 28.46875 -44.515625 C 28.46875 -45.910156 28.132812 -46.984375 27.46875 -47.734375 C 26.800781 -48.492188 25.894531 -48.875 24.75 -48.875 Z M 23.484375 -48.875 "/></g></g></g><g fill="#ffffff" fill-opacity="1"><g transform="translate(280.426049, 170.684995)"><g><path d="M 41.890625 -50.234375 C 41.828125 -49.804688 41.660156 -49.472656 41.390625 -49.234375 C 41.117188 -48.992188 40.769531 -48.875 40.34375 -48.875 L 23.484375 -48.875 C 23.179688 -48.875 23.03125 -48.722656 23.03125 -48.421875 L 21.9375 -39.53125 C 21.820312 -39.226562 21.945312 -39.078125 22.3125 -39.078125 L 31.09375 -39.078125 C 31.519531 -39.078125 31.835938 -38.957031 32.046875 -38.71875 C 32.265625 -38.476562 32.34375 -38.144531 32.28125 -37.71875 L 30.828125 -25.84375 C 30.648438 -24.9375 30.132812 -24.484375 29.28125 -24.484375 L 20.484375 -24.484375 C 20.179688 -24.484375 20.03125 -24.332031 20.03125 -24.03125 L 18.953125 -15.046875 C 18.828125 -14.742188 18.945312 -14.59375 19.3125 -14.59375 L 36.171875 -14.59375 C 36.597656 -14.59375 36.914062 -14.472656 37.125 -14.234375 C 37.34375 -13.992188 37.421875 -13.660156 37.359375 -13.234375 L 35.90625 -1.359375 C 35.84375 -0.929688 35.675781 -0.597656 35.40625 -0.359375 C 35.132812 -0.117188 34.785156 0 34.359375 0 L 1.8125 0 C 1.445312 0 1.160156 -0.117188 0.953125 -0.359375 C 0.742188 -0.597656 0.664062 -0.929688 0.71875 -1.359375 L 8.15625 -62.109375 C 8.21875 -62.535156 8.382812 -62.867188 8.65625 -63.109375 C 8.925781 -63.347656 9.242188 -63.46875 9.609375 -63.46875 L 42.15625 -63.46875 C 42.582031 -63.46875 42.898438 -63.347656 43.109375 -63.109375 C 43.328125 -62.867188 43.40625 -62.535156 43.34375 -62.109375 Z M 41.890625 -50.234375 "/></g></g></g><g fill="#ffffff" fill-opacity="1"><g transform="translate(319.500721, 170.684995)"><g><path d="M 33.640625 -62.109375 C 33.703125 -62.535156 33.867188 -62.867188 34.140625 -63.109375 C 34.410156 -63.347656 34.757812 -63.46875 35.1875 -63.46875 L 48.875 -63.46875 C 49.289062 -63.46875 49.601562 -63.347656 49.8125 -63.109375 C 50.03125 -62.867188 50.109375 -62.535156 50.046875 -62.109375 L 42.53125 -1.359375 C 42.46875 -0.929688 42.3125 -0.597656 42.0625 -0.359375 C 41.820312 -0.117188 41.492188 0 41.078125 0 L 25.390625 0 C 24.660156 0 24.238281 -0.390625 24.125 -1.171875 L 20.671875 -29.015625 C 20.671875 -29.191406 20.609375 -29.28125 20.484375 -29.28125 C 20.367188 -29.28125 20.3125 -29.191406 20.3125 -29.015625 L 17.046875 -1.359375 C 16.984375 -0.929688 16.816406 -0.597656 16.546875 -0.359375 C 16.273438 -0.117188 15.957031 0 15.59375 0 L 1.8125 0 C 1.445312 0 1.160156 -0.117188 0.953125 -0.359375 C 0.742188 -0.597656 0.664062 -0.929688 0.71875 -1.359375 L 8.15625 -62.109375 C 8.21875 -62.535156 8.382812 -62.867188 8.65625 -63.109375 C 8.925781 -63.347656 9.242188 -63.46875 9.609375 -63.46875 L 25.109375 -63.46875 C 25.835938 -63.46875 26.265625 -63.078125 26.390625 -62.296875 L 29.921875 -34.28125 C 29.921875 -34.09375 29.976562 -34.03125 30.09375 -34.09375 C 30.21875 -34.15625 30.3125 -34.242188 30.375 -34.359375 Z M 33.640625 -62.109375 "/></g></g></g><g fill="#ffffff" fill-opacity="1"><g transform="translate(365.918891, 170.684995)"><g><path d="M 28.203125 0 C 27.347656 0 26.953125 -0.421875 27.015625 -1.265625 L 26.84375 -8.15625 C 26.894531 -8.28125 26.859375 -8.382812 26.734375 -8.46875 C 26.617188 -8.5625 26.503906 -8.609375 26.390625 -8.609375 L 18.5 -8.609375 C 18.195312 -8.609375 17.984375 -8.457031 17.859375 -8.15625 L 16.140625 -1.265625 C 15.960938 -0.421875 15.445312 0 14.59375 0 L 0.8125 0 C -0.09375 0 -0.425781 -0.484375 -0.1875 -1.453125 L 19.765625 -62.296875 C 20.003906 -63.078125 20.550781 -63.46875 21.40625 -63.46875 L 37.453125 -63.46875 C 38.296875 -63.46875 38.75 -63.078125 38.8125 -62.296875 L 43.796875 -1.453125 L 43.796875 -1.265625 C 43.796875 -0.421875 43.34375 0 42.4375 0 Z M 21.578125 -22.125 C 21.460938 -21.820312 21.554688 -21.671875 21.859375 -21.671875 L 26.109375 -21.671875 C 26.296875 -21.671875 26.445312 -21.820312 26.5625 -22.125 L 26.203125 -38.890625 C 26.203125 -39.140625 26.125 -39.25 25.96875 -39.21875 C 25.820312 -39.1875 25.75 -39.078125 25.75 -38.890625 Z M 21.578125 -22.125 "/></g></g></g></svg>