<svg xmlns="http://www.w3.org/2000/svg" xmlns:xlink="http://www.w3.org/1999/xlink" width="126" zoomAndPan="magnify" viewBox="0 0 94.5 36.750001" height="49" preserveAspectRatio="xMidYMid meet" version="1.0"><defs><g/><clipPath id="2c1280bc5d"><path d="M 0.0703125 0 L 93.933594 0 L 93.933594 36.5 L 0.0703125 36.5 Z M 0.0703125 0 " clip-rule="nonzero"/></clipPath><clipPath id="22b493d30e"><path d="M 35.613281 17.109375 L 70.0625 17.109375 L 70.0625 29.570312 L 35.613281 29.570312 Z M 35.613281 17.109375 " clip-rule="nonzero"/></clipPath></defs><g clip-path="url(#2c1280bc5d)"><path fill="#ffffff" d="M 0.0703125 0 L 94.429688 0 L 94.429688 36.695312 L 0.0703125 36.695312 Z M 0.0703125 0 " fill-opacity="1" fill-rule="nonzero"/><path fill="#14345b" d="M 0.0703125 0 L 94.429688 0 L 94.429688 36.695312 L 0.0703125 36.695312 Z M 0.0703125 0 " fill-opacity="1" fill-rule="nonzero"/></g><g fill="#fbfcfc" fill-opacity="1"><g transform="translate(21.912228, 16.81176)"><g><path d="M 7.109375 -9.578125 C 7.160156 -9.578125 7.203125 -9.554688 7.234375 -9.515625 C 7.265625 -9.484375 7.273438 -9.4375 7.265625 -9.375 L 7.046875 -7.578125 C 7.035156 -7.515625 7.007812 -7.460938 6.96875 -7.421875 C 6.9375 -7.390625 6.890625 -7.375 6.828125 -7.375 L 5.25 -7.375 C 5.195312 -7.375 5.171875 -7.351562 5.171875 -7.3125 L 4.296875 -0.203125 C 4.285156 -0.140625 4.257812 -0.0859375 4.21875 -0.046875 C 4.1875 -0.015625 4.140625 0 4.078125 0 L 1.984375 0 C 1.921875 0 1.875 -0.015625 1.84375 -0.046875 C 1.8125 -0.0859375 1.800781 -0.140625 1.8125 -0.203125 L 2.6875 -7.3125 C 2.6875 -7.351562 2.660156 -7.375 2.609375 -7.375 L 1.078125 -7.375 C 1.015625 -7.375 0.96875 -7.390625 0.9375 -7.421875 C 0.90625 -7.460938 0.894531 -7.515625 0.90625 -7.578125 L 1.125 -9.375 C 1.132812 -9.4375 1.160156 -9.484375 1.203125 -9.515625 C 1.242188 -9.554688 1.296875 -9.578125 1.359375 -9.578125 Z M 7.109375 -9.578125 "/></g></g></g><g fill="#fbfcfc" fill-opacity="1"><g transform="translate(28.536671, 16.81176)"><g><path d="M 0.28125 0 C 0.21875 0 0.171875 -0.015625 0.140625 -0.046875 C 0.109375 -0.0859375 0.0976562 -0.140625 0.109375 -0.203125 L 1.234375 -9.375 C 1.242188 -9.4375 1.269531 -9.484375 1.3125 -9.515625 C 1.351562 -9.554688 1.398438 -9.578125 1.453125 -9.578125 L 3.5625 -9.578125 C 3.613281 -9.578125 3.65625 -9.554688 3.6875 -9.515625 C 3.71875 -9.484375 3.726562 -9.4375 3.71875 -9.375 L 2.59375 -0.203125 C 2.59375 -0.140625 2.570312 -0.0859375 2.53125 -0.046875 C 2.488281 -0.015625 2.4375 0 2.375 0 Z M 0.28125 0 "/></g></g></g><g fill="#fbfcfc" fill-opacity="1"><g transform="translate(31.725714, 16.81176)"><g><path d="M 4.421875 -9.578125 C 5.148438 -9.578125 5.722656 -9.34375 6.140625 -8.875 C 6.566406 -8.40625 6.78125 -7.785156 6.78125 -7.015625 C 6.78125 -6.785156 6.773438 -6.613281 6.765625 -6.5 C 6.691406 -5.914062 6.519531 -5.398438 6.25 -4.953125 C 5.976562 -4.503906 5.628906 -4.160156 5.203125 -3.921875 C 4.785156 -3.679688 4.320312 -3.5625 3.8125 -3.5625 L 3.046875 -3.5625 C 3.003906 -3.5625 2.984375 -3.535156 2.984375 -3.484375 L 2.578125 -0.203125 C 2.566406 -0.140625 2.539062 -0.0859375 2.5 -0.046875 C 2.457031 -0.015625 2.410156 0 2.359375 0 L 0.25 0 C 0.195312 0 0.148438 -0.015625 0.109375 -0.046875 C 0.078125 -0.0859375 0.0664062 -0.140625 0.078125 -0.203125 L 1.203125 -9.375 C 1.210938 -9.4375 1.238281 -9.484375 1.28125 -9.515625 C 1.320312 -9.554688 1.367188 -9.578125 1.421875 -9.578125 Z M 3.484375 -5.546875 C 3.679688 -5.546875 3.847656 -5.617188 3.984375 -5.765625 C 4.128906 -5.921875 4.21875 -6.148438 4.25 -6.453125 C 4.257812 -6.503906 4.265625 -6.578125 4.265625 -6.671875 C 4.265625 -6.898438 4.210938 -7.070312 4.109375 -7.1875 C 4.015625 -7.3125 3.878906 -7.375 3.703125 -7.375 L 3.515625 -7.375 C 3.472656 -7.375 3.453125 -7.351562 3.453125 -7.3125 L 3.25 -5.609375 C 3.226562 -5.566406 3.242188 -5.546875 3.296875 -5.546875 Z M 3.484375 -5.546875 "/></g></g></g><g fill="#fbfcfc" fill-opacity="1"><g transform="translate(38.117484, 16.81176)"><g><path d="M 2.84375 0.109375 C 2.0625 0.109375 1.441406 -0.09375 0.984375 -0.5 C 0.523438 -0.90625 0.296875 -1.445312 0.296875 -2.125 C 0.296875 -2.1875 0.304688 -2.300781 0.328125 -2.46875 L 0.390625 -2.890625 C 0.390625 -2.953125 0.410156 -3 0.453125 -3.03125 C 0.492188 -3.070312 0.546875 -3.09375 0.609375 -3.09375 L 2.6875 -3.09375 C 2.738281 -3.09375 2.78125 -3.070312 2.8125 -3.03125 C 2.84375 -3 2.851562 -2.953125 2.84375 -2.890625 L 2.8125 -2.59375 C 2.800781 -2.445312 2.820312 -2.328125 2.875 -2.234375 C 2.925781 -2.140625 3.007812 -2.09375 3.125 -2.09375 C 3.238281 -2.09375 3.335938 -2.140625 3.421875 -2.234375 C 3.503906 -2.335938 3.546875 -2.460938 3.546875 -2.609375 C 3.546875 -2.742188 3.476562 -2.882812 3.34375 -3.03125 C 3.207031 -3.175781 2.957031 -3.398438 2.59375 -3.703125 C 2.226562 -4.003906 1.925781 -4.269531 1.6875 -4.5 C 1.445312 -4.738281 1.238281 -5.03125 1.0625 -5.375 C 0.894531 -5.71875 0.8125 -6.109375 0.8125 -6.546875 C 0.8125 -6.628906 0.816406 -6.769531 0.828125 -6.96875 C 0.929688 -7.78125 1.269531 -8.4375 1.84375 -8.9375 C 2.414062 -9.4375 3.132812 -9.6875 4 -9.6875 C 4.78125 -9.6875 5.394531 -9.476562 5.84375 -9.0625 C 6.300781 -8.644531 6.53125 -8.078125 6.53125 -7.359375 C 6.53125 -7.273438 6.519531 -7.144531 6.5 -6.96875 L 6.453125 -6.671875 C 6.453125 -6.597656 6.429688 -6.539062 6.390625 -6.5 C 6.347656 -6.46875 6.296875 -6.453125 6.234375 -6.453125 L 4.171875 -6.453125 C 4.117188 -6.453125 4.078125 -6.46875 4.046875 -6.5 C 4.015625 -6.539062 4.003906 -6.597656 4.015625 -6.671875 L 4.046875 -7.015625 C 4.054688 -7.160156 4.03125 -7.273438 3.96875 -7.359375 C 3.914062 -7.441406 3.832031 -7.484375 3.71875 -7.484375 C 3.59375 -7.484375 3.488281 -7.425781 3.40625 -7.3125 C 3.320312 -7.207031 3.28125 -7.066406 3.28125 -6.890625 C 3.28125 -6.734375 3.34375 -6.570312 3.46875 -6.40625 C 3.601562 -6.238281 3.84375 -6.007812 4.1875 -5.71875 C 4.65625 -5.332031 5.007812 -5.015625 5.25 -4.765625 C 5.5 -4.523438 5.691406 -4.257812 5.828125 -3.96875 C 5.972656 -3.6875 6.046875 -3.363281 6.046875 -3 C 6.046875 -2.925781 6.035156 -2.796875 6.015625 -2.609375 C 5.910156 -1.785156 5.566406 -1.125 4.984375 -0.625 C 4.410156 -0.132812 3.695312 0.109375 2.84375 0.109375 Z M 2.84375 0.109375 "/></g></g></g><g fill="#fbfcfc" fill-opacity="1"><g transform="translate(44.262886, 16.81176)"><g><path d="M 7.109375 -9.578125 C 7.160156 -9.578125 7.203125 -9.554688 7.234375 -9.515625 C 7.265625 -9.484375 7.273438 -9.4375 7.265625 -9.375 L 7.046875 -7.578125 C 7.035156 -7.515625 7.007812 -7.460938 6.96875 -7.421875 C 6.9375 -7.390625 6.890625 -7.375 6.828125 -7.375 L 5.25 -7.375 C 5.195312 -7.375 5.171875 -7.351562 5.171875 -7.3125 L 4.296875 -0.203125 C 4.285156 -0.140625 4.257812 -0.0859375 4.21875 -0.046875 C 4.1875 -0.015625 4.140625 0 4.078125 0 L 1.984375 0 C 1.921875 0 1.875 -0.015625 1.84375 -0.046875 C 1.8125 -0.0859375 1.800781 -0.140625 1.8125 -0.203125 L 2.6875 -7.3125 C 2.6875 -7.351562 2.660156 -7.375 2.609375 -7.375 L 1.078125 -7.375 C 1.015625 -7.375 0.96875 -7.390625 0.9375 -7.421875 C 0.90625 -7.460938 0.894531 -7.515625 0.90625 -7.578125 L 1.125 -9.375 C 1.132812 -9.4375 1.160156 -9.484375 1.203125 -9.515625 C 1.242188 -9.554688 1.296875 -9.578125 1.359375 -9.578125 Z M 7.109375 -9.578125 "/></g></g></g><g fill="#fbfcfc" fill-opacity="1"><g transform="translate(50.887329, 16.81176)"><g><path d="M 6.328125 -7.578125 C 6.316406 -7.515625 6.289062 -7.460938 6.25 -7.421875 C 6.207031 -7.390625 6.15625 -7.375 6.09375 -7.375 L 3.546875 -7.375 C 3.503906 -7.375 3.484375 -7.351562 3.484375 -7.3125 L 3.3125 -5.96875 C 3.289062 -5.925781 3.304688 -5.90625 3.359375 -5.90625 L 4.6875 -5.90625 C 4.757812 -5.90625 4.8125 -5.882812 4.84375 -5.84375 C 4.875 -5.8125 4.882812 -5.757812 4.875 -5.6875 L 4.65625 -3.90625 C 4.625 -3.769531 4.546875 -3.703125 4.421875 -3.703125 L 3.09375 -3.703125 C 3.050781 -3.703125 3.03125 -3.675781 3.03125 -3.625 L 2.859375 -2.265625 C 2.835938 -2.222656 2.859375 -2.203125 2.921875 -2.203125 L 5.46875 -2.203125 C 5.53125 -2.203125 5.578125 -2.179688 5.609375 -2.140625 C 5.640625 -2.109375 5.648438 -2.0625 5.640625 -2 L 5.421875 -0.203125 C 5.410156 -0.140625 5.382812 -0.0859375 5.34375 -0.046875 C 5.300781 -0.015625 5.25 0 5.1875 0 L 0.28125 0 C 0.21875 0 0.171875 -0.015625 0.140625 -0.046875 C 0.109375 -0.0859375 0.0976562 -0.140625 0.109375 -0.203125 L 1.234375 -9.375 C 1.242188 -9.4375 1.269531 -9.484375 1.3125 -9.515625 C 1.351562 -9.554688 1.398438 -9.578125 1.453125 -9.578125 L 6.359375 -9.578125 C 6.421875 -9.578125 6.46875 -9.554688 6.5 -9.515625 C 6.539062 -9.484375 6.554688 -9.4375 6.546875 -9.375 Z M 6.328125 -7.578125 "/></g></g></g><g fill="#fbfcfc" fill-opacity="1"><g transform="translate(56.786374, 16.81176)"><g><path d="M 3.703125 0 C 3.597656 0 3.535156 -0.0546875 3.515625 -0.171875 L 3.125 -3.625 C 3.125 -3.664062 3.109375 -3.6875 3.078125 -3.6875 C 3.046875 -3.6875 3.03125 -3.660156 3.03125 -3.609375 L 2.59375 -0.203125 C 2.59375 -0.140625 2.570312 -0.0859375 2.53125 -0.046875 C 2.488281 -0.015625 2.4375 0 2.375 0 L 0.28125 0 C 0.21875 0 0.171875 -0.015625 0.140625 -0.046875 C 0.109375 -0.0859375 0.0976562 -0.140625 0.109375 -0.203125 L 1.234375 -9.375 C 1.242188 -9.4375 1.269531 -9.484375 1.3125 -9.515625 C 1.351562 -9.554688 1.398438 -9.578125 1.453125 -9.578125 L 4.453125 -9.578125 C 5.179688 -9.578125 5.753906 -9.34375 6.171875 -8.875 C 6.597656 -8.414062 6.8125 -7.800781 6.8125 -7.03125 C 6.8125 -6.8125 6.800781 -6.644531 6.78125 -6.53125 C 6.71875 -6.03125 6.578125 -5.578125 6.359375 -5.171875 C 6.140625 -4.773438 5.859375 -4.457031 5.515625 -4.21875 C 5.472656 -4.1875 5.457031 -4.15625 5.46875 -4.125 L 6.0625 -0.234375 L 6.0625 -0.171875 C 6.0625 -0.117188 6.039062 -0.078125 6 -0.046875 C 5.96875 -0.015625 5.925781 0 5.875 0 Z M 3.546875 -7.375 C 3.503906 -7.375 3.484375 -7.351562 3.484375 -7.3125 L 3.265625 -5.703125 C 3.265625 -5.660156 3.289062 -5.640625 3.34375 -5.640625 L 3.515625 -5.640625 C 3.734375 -5.640625 3.914062 -5.734375 4.0625 -5.921875 C 4.21875 -6.117188 4.296875 -6.382812 4.296875 -6.71875 C 4.296875 -6.925781 4.242188 -7.085938 4.140625 -7.203125 C 4.046875 -7.316406 3.910156 -7.375 3.734375 -7.375 Z M 3.546875 -7.375 "/></g></g></g><g clip-path="url(#22b493d30e)"><path fill="#e42626" d="M 35.707031 16.84375 L 93.183594 16.84375 C 93.183594 21.085938 93.183594 25.328125 93.183594 29.574219 C 74.023438 29.574219 54.867188 29.574219 35.707031 29.574219 C 35.707031 25.328125 35.707031 21.085938 35.707031 16.84375 " fill-opacity="1" fill-rule="nonzero"/></g><g fill="#fbfcfc" fill-opacity="1"><g transform="translate(39.79877, 27.244186)"><g><path d="M 3.359375 0 C 3.253906 0 3.207031 -0.0507812 3.21875 -0.15625 L 3.203125 -0.96875 C 3.203125 -0.988281 3.191406 -1.003906 3.171875 -1.015625 C 3.160156 -1.023438 3.148438 -1.03125 3.140625 -1.03125 L 2.203125 -1.03125 C 2.171875 -1.03125 2.144531 -1.007812 2.125 -0.96875 L 1.921875 -0.15625 C 1.898438 -0.0507812 1.835938 0 1.734375 0 L 0.09375 0 C -0.0078125 0 -0.046875 -0.0546875 -0.015625 -0.171875 L 2.359375 -7.421875 C 2.378906 -7.515625 2.441406 -7.5625 2.546875 -7.5625 L 4.453125 -7.5625 C 4.554688 -7.5625 4.613281 -7.515625 4.625 -7.421875 L 5.21875 -0.171875 L 5.21875 -0.15625 C 5.21875 -0.0507812 5.160156 0 5.046875 0 Z M 2.5625 -2.640625 C 2.550781 -2.597656 2.566406 -2.578125 2.609375 -2.578125 L 3.109375 -2.578125 C 3.128906 -2.578125 3.144531 -2.597656 3.15625 -2.640625 L 3.125 -4.625 C 3.125 -4.65625 3.113281 -4.671875 3.09375 -4.671875 C 3.070312 -4.671875 3.0625 -4.65625 3.0625 -4.625 Z M 2.5625 -2.640625 "/></g></g></g><g fill="#fbfcfc" fill-opacity="1"><g transform="translate(45.354806, 27.244186)"><g><path d="M 2.921875 0 C 2.835938 0 2.789062 -0.046875 2.78125 -0.140625 L 2.46875 -2.859375 C 2.46875 -2.890625 2.453125 -2.90625 2.421875 -2.90625 C 2.398438 -2.90625 2.390625 -2.882812 2.390625 -2.84375 L 2.046875 -0.15625 C 2.046875 -0.113281 2.023438 -0.078125 1.984375 -0.046875 C 1.953125 -0.015625 1.914062 0 1.875 0 L 0.21875 0 C 0.175781 0 0.140625 -0.015625 0.109375 -0.046875 C 0.0859375 -0.078125 0.0820312 -0.113281 0.09375 -0.15625 L 0.96875 -7.390625 C 0.976562 -7.441406 1 -7.484375 1.03125 -7.515625 C 1.0625 -7.546875 1.097656 -7.5625 1.140625 -7.5625 L 3.515625 -7.5625 C 4.085938 -7.5625 4.539062 -7.375 4.875 -7 C 5.207031 -6.632812 5.375 -6.148438 5.375 -5.546875 C 5.375 -5.378906 5.367188 -5.25 5.359375 -5.15625 C 5.304688 -4.757812 5.191406 -4.398438 5.015625 -4.078125 C 4.847656 -3.765625 4.625 -3.515625 4.34375 -3.328125 C 4.3125 -3.304688 4.300781 -3.28125 4.3125 -3.25 L 4.78125 -0.1875 L 4.78125 -0.140625 C 4.78125 -0.0976562 4.765625 -0.0625 4.734375 -0.03125 C 4.710938 -0.0078125 4.675781 0 4.625 0 Z M 2.796875 -5.8125 C 2.765625 -5.8125 2.75 -5.796875 2.75 -5.765625 L 2.578125 -4.5 C 2.578125 -4.46875 2.597656 -4.453125 2.640625 -4.453125 L 2.78125 -4.453125 C 2.945312 -4.453125 3.085938 -4.523438 3.203125 -4.671875 C 3.328125 -4.828125 3.390625 -5.035156 3.390625 -5.296875 C 3.390625 -5.460938 3.347656 -5.585938 3.265625 -5.671875 C 3.191406 -5.765625 3.085938 -5.8125 2.953125 -5.8125 Z M 2.796875 -5.8125 "/></g></g></g><g fill="#fbfcfc" fill-opacity="1"><g transform="translate(50.479306, 27.244186)"><g><path d="M 4.984375 -5.984375 C 4.984375 -5.929688 4.960938 -5.890625 4.921875 -5.859375 C 4.890625 -5.828125 4.847656 -5.8125 4.796875 -5.8125 L 2.796875 -5.8125 C 2.765625 -5.8125 2.75 -5.796875 2.75 -5.765625 L 2.609375 -4.703125 C 2.597656 -4.671875 2.613281 -4.65625 2.65625 -4.65625 L 3.703125 -4.65625 C 3.753906 -4.65625 3.789062 -4.640625 3.8125 -4.609375 C 3.84375 -4.578125 3.851562 -4.535156 3.84375 -4.484375 L 3.671875 -3.078125 C 3.648438 -2.972656 3.585938 -2.921875 3.484375 -2.921875 L 2.4375 -2.921875 C 2.40625 -2.921875 2.390625 -2.898438 2.390625 -2.859375 L 2.25 -1.796875 C 2.238281 -1.753906 2.253906 -1.734375 2.296875 -1.734375 L 4.3125 -1.734375 C 4.363281 -1.734375 4.398438 -1.71875 4.421875 -1.6875 C 4.441406 -1.664062 4.453125 -1.628906 4.453125 -1.578125 L 4.28125 -0.15625 C 4.269531 -0.113281 4.25 -0.078125 4.21875 -0.046875 C 4.1875 -0.015625 4.144531 0 4.09375 0 L 0.21875 0 C 0.175781 0 0.140625 -0.015625 0.109375 -0.046875 C 0.0859375 -0.078125 0.0820312 -0.113281 0.09375 -0.15625 L 0.96875 -7.390625 C 0.976562 -7.441406 1 -7.484375 1.03125 -7.515625 C 1.0625 -7.546875 1.097656 -7.5625 1.140625 -7.5625 L 5.015625 -7.5625 C 5.066406 -7.5625 5.101562 -7.546875 5.125 -7.515625 C 5.15625 -7.484375 5.164062 -7.441406 5.15625 -7.390625 Z M 4.984375 -5.984375 "/></g></g></g><g fill="#fbfcfc" fill-opacity="1"><g transform="translate(55.12912, 27.244186)"><g><path d="M 4 -7.390625 C 4.007812 -7.441406 4.03125 -7.484375 4.0625 -7.515625 C 4.09375 -7.546875 4.132812 -7.5625 4.1875 -7.5625 L 5.8125 -7.5625 C 5.863281 -7.5625 5.898438 -7.546875 5.921875 -7.515625 C 5.953125 -7.484375 5.960938 -7.441406 5.953125 -7.390625 L 5.0625 -0.15625 C 5.050781 -0.113281 5.03125 -0.078125 5 -0.046875 C 4.976562 -0.015625 4.941406 0 4.890625 0 L 3.015625 0 C 2.929688 0 2.882812 -0.046875 2.875 -0.140625 L 2.46875 -3.453125 C 2.46875 -3.472656 2.457031 -3.484375 2.4375 -3.484375 C 2.425781 -3.484375 2.421875 -3.472656 2.421875 -3.453125 L 2.03125 -0.15625 C 2.019531 -0.113281 2 -0.078125 1.96875 -0.046875 C 1.9375 -0.015625 1.898438 0 1.859375 0 L 0.21875 0 C 0.175781 0 0.140625 -0.015625 0.109375 -0.046875 C 0.0859375 -0.078125 0.0820312 -0.113281 0.09375 -0.15625 L 0.96875 -7.390625 C 0.976562 -7.441406 1 -7.484375 1.03125 -7.515625 C 1.0625 -7.546875 1.097656 -7.5625 1.140625 -7.5625 L 2.984375 -7.5625 C 3.078125 -7.5625 3.128906 -7.515625 3.140625 -7.421875 L 3.5625 -4.078125 C 3.5625 -4.054688 3.566406 -4.050781 3.578125 -4.0625 C 3.597656 -4.070312 3.609375 -4.082031 3.609375 -4.09375 Z M 4 -7.390625 "/></g></g></g><g fill="#fbfcfc" fill-opacity="1"><g transform="translate(60.652795, 27.244186)"><g><path d="M 3.359375 0 C 3.253906 0 3.207031 -0.0507812 3.21875 -0.15625 L 3.203125 -0.96875 C 3.203125 -0.988281 3.191406 -1.003906 3.171875 -1.015625 C 3.160156 -1.023438 3.148438 -1.03125 3.140625 -1.03125 L 2.203125 -1.03125 C 2.171875 -1.03125 2.144531 -1.007812 2.125 -0.96875 L 1.921875 -0.15625 C 1.898438 -0.0507812 1.835938 0 1.734375 0 L 0.09375 0 C -0.0078125 0 -0.046875 -0.0546875 -0.015625 -0.171875 L 2.359375 -7.421875 C 2.378906 -7.515625 2.441406 -7.5625 2.546875 -7.5625 L 4.453125 -7.5625 C 4.554688 -7.5625 4.613281 -7.515625 4.625 -7.421875 L 5.21875 -0.171875 L 5.21875 -0.15625 C 5.21875 -0.0507812 5.160156 0 5.046875 0 Z M 2.5625 -2.640625 C 2.550781 -2.597656 2.566406 -2.578125 2.609375 -2.578125 L 3.109375 -2.578125 C 3.128906 -2.578125 3.144531 -2.597656 3.15625 -2.640625 L 3.125 -4.625 C 3.125 -4.65625 3.113281 -4.671875 3.09375 -4.671875 C 3.070312 -4.671875 3.0625 -4.65625 3.0625 -4.625 Z M 2.5625 -2.640625 "/></g></g></g></svg>